Khula-wt719.83.ufo
<glyph name="numbersign.deva" format="1">
  <advance width="1270"/>
  <unicode hex="0023"/>
  <outline>
    <contour>
      <point x="939" y="760" type="line"/>
      <point x="897" y="551" type="line"/>
      <point x="1129" y="551" type="line"/>
      <point x="1129" y="365" type="line"/>
      <point x="862" y="365" type="line"/>
      <point x="792" y="0" type="line"/>
      <point x="594" y="0" type="line"/>
      <point x="665" y="365" type="line"/>
      <point x="490" y="365" type="line"/>
      <point x="422" y="0" type="line"/>
      <point x="228" y="0" type="line"/>
      <point x="295" y="365" type="line"/>
      <point x="80" y="365" type="line"/>
      <point x="80" y="551" type="line"/>
      <point x="330" y="551" type="line"/>
      <point x="372" y="760" type="line"/>
      <point x="145" y="760" type="line"/>
      <point x="145" y="948" type="line"/>
      <point x="405" y="948" type="line"/>
      <point x="475" y="1314" type="line"/>
      <point x="672" y="1314" type="line"/>
      <point x="602" y="948" type="line"/>
      <point x="781" y="948" type="line"/>
      <point x="851" y="1314" type="line"/>
      <point x="1044" y="1314" type="line"/>
      <point x="974" y="948" type="line"/>
      <point x="1190" y="948" type="line"/>
      <point x="1190" y="760" type="line"/>
    </contour>
    <contour>
      <point x="525" y="551" type="line"/>
      <point x="701" y="551" type="line"/>
      <point x="744" y="760" type="line"/>
      <point x="567" y="760" type="line"/>
    </contour>
  </outline>
</glyph>
<glyph name="percent.deva" format="1">
  <advance width="1660"/>
  <unicode hex="0025"/>
  <outline>
    <contour>
      <point x="283" y="922" type="curve" smooth="yes"/>
      <point x="283" y="769"/>
      <point x="309" y="695"/>
      <point x="369" y="695" type="curve" smooth="yes"/>
      <point x="426" y="695"/>
      <point x="455" y="771"/>
      <point x="455" y="922" type="curve" smooth="yes"/>
      <point x="455" y="1072"/>
      <point x="426" y="1147"/>
      <point x="369" y="1147" type="curve" smooth="yes"/>
      <point x="309" y="1147"/>
      <point x="283" y="1074"/>
    </contour>
    <contour>
      <point x="682" y="923" type="curve" smooth="yes"/>
      <point x="682" y="647"/>
      <point x="574" y="508"/>
      <point x="367" y="508" type="curve" smooth="yes"/>
      <point x="170" y="508"/>
      <point x="57" y="655"/>
      <point x="57" y="923" type="curve" smooth="yes"/>
      <point x="57" y="1198"/>
      <point x="160" y="1335"/>
      <point x="367" y="1335" type="curve" smooth="yes"/>
      <point x="570" y="1335"/>
      <point x="682" y="1187"/>
    </contour>
    <contour>
      <point x="1301" y="1316" type="line"/>
      <point x="571" y="0" type="line"/>
      <point x="355" y="0" type="line"/>
      <point x="1085" y="1316" type="line"/>
    </contour>
    <contour>
      <point x="1205" y="396" type="curve" smooth="yes"/>
      <point x="1205" y="244"/>
      <point x="1231" y="169"/>
      <point x="1291" y="169" type="curve" smooth="yes"/>
      <point x="1348" y="169"/>
      <point x="1377" y="245"/>
      <point x="1377" y="396" type="curve" smooth="yes"/>
      <point x="1377" y="546"/>
      <point x="1348" y="621"/>
      <point x="1291" y="621" type="curve" smooth="yes"/>
      <point x="1231" y="621"/>
      <point x="1205" y="548"/>
    </contour>
    <contour>
      <point x="1604" y="398" type="curve" smooth="yes"/>
      <point x="1604" y="123"/>
      <point x="1496" y="-16"/>
      <point x="1289" y="-16" type="curve" smooth="yes"/>
      <point x="1090" y="-16"/>
      <point x="978" y="130"/>
      <point x="978" y="398" type="curve" smooth="yes"/>
      <point x="978" y="672"/>
      <point x="1082" y="809"/>
      <point x="1289" y="809" type="curve" smooth="yes"/>
      <point x="1492" y="809"/>
      <point x="1604" y="662"/>
    </contour>
  </outline>
</glyph>
<glyph name="plus.deva" format="1">
  <advance width="1047"/>
  <unicode hex="002B"/>
  <outline>
    <contour>
      <point x="469" y="596" type="line"/>
      <point x="391" y="596" type="line"/>
      <point x="391" y="704" type="line"/>
      <point x="469" y="704" type="line"/>
      <point x="469" y="773" type="line"/>
      <point x="577" y="773" type="line"/>
      <point x="577" y="704" type="line"/>
      <point x="654" y="704" type="line"/>
      <point x="654" y="596" type="line"/>
      <point x="577" y="596" type="line"/>
      <point x="577" y="530" type="line"/>
      <point x="469" y="530" type="line"/>
    </contour>
  </outline>
</glyph>
<glyph name="hyphen.deva" format="1">
  <advance width="698"/>
  <unicode hex="002D"/>
  <outline>
    <contour>
      <point x="91" y="380" type="line"/>
      <point x="91" y="608" type="line"/>
      <point x="575" y="608" type="line"/>
      <point x="575" y="380" type="line"/>
    </contour>
  </outline>
</glyph>
<glyph name="slash.deva" format="1">
  <advance width="761"/>
  <unicode hex="002F"/>
  <outline>
    <contour>
      <point x="752" y="1316" type="line"/>
      <point x="262" y="0" type="line"/>
      <point x="13" y="0" type="line"/>
      <point x="503" y="1316" type="line"/>
    </contour>
  </outline>
</glyph>
<glyph name="one.deva" format="1">
  <advance width="1052"/>
  <unicode hex="0031"/>
  <outline>
    <contour>
      <point x="761" y="0" type="line"/>
      <point x="483" y="0" type="line"/>
      <point x="483" y="761" type="line"/>
      <point x="486" y="886" type="line"/>
      <point x="490" y="1023" type="line"/>
      <point x="444" y="977"/>
      <point x="412" y="947"/>
      <point x="394" y="932" type="curve" smooth="yes"/>
      <point x="243" y="811" type="line"/>
      <point x="109" y="978" type="line"/>
      <point x="533" y="1316" type="line"/>
      <point x="761" y="1316" type="line"/>
    </contour>
  </outline>
</glyph>
<glyph name="two.deva" format="1">
  <advance width="1052"/>
  <unicode hex="0032"/>
  <outline>
    <contour>
      <point x="994" y="0" type="line"/>
      <point x="74" y="0" type="line"/>
      <point x="74" y="193" type="line"/>
      <point x="404" y="527" type="line"/>
      <point x="502" y="628"/>
      <point x="566" y="697"/>
      <point x="596" y="736" type="curve" smooth="yes"/>
      <point x="656" y="813"/>
      <point x="680" y="875"/>
      <point x="680" y="946" type="curve" smooth="yes"/>
      <point x="680" y="1051"/>
      <point x="617" y="1102"/>
      <point x="520" y="1102" type="curve" smooth="yes"/>
      <point x="419" y="1102"/>
      <point x="326" y="1054"/>
      <point x="221" y="967" type="curve"/>
      <point x="70" y="1147" type="line"/>
      <point x="135" y="1202"/>
      <point x="188" y="1240"/>
      <point x="231" y="1263" type="curve" smooth="yes"/>
      <point x="316" y="1310"/>
      <point x="415" y="1335"/>
      <point x="540" y="1335" type="curve" smooth="yes"/>
      <point x="787" y="1335"/>
      <point x="957" y="1189"/>
      <point x="957" y="978" type="curve" smooth="yes"/>
      <point x="957" y="917"/>
      <point x="946" y="860"/>
      <point x="925" y="807" type="curve" smooth="yes"/>
      <point x="904" y="754"/>
      <point x="871" y="700"/>
      <point x="826" y="644" type="curve" smooth="yes"/>
      <point x="781" y="589"/>
      <point x="702" y="509"/>
      <point x="589" y="406" type="curve"/>
      <point x="420" y="247" type="line"/>
      <point x="420" y="234" type="line"/>
      <point x="994" y="234" type="line"/>
    </contour>
  </outline>
</glyph>
<glyph name="five.deva" format="1">
  <advance width="1052"/>
  <unicode hex="0035"/>
  <outline>
    <contour>
      <point x="553" y="841" type="curve" smooth="yes"/>
      <point x="680" y="841"/>
      <point x="781" y="805"/>
      <point x="856" y="733" type="curve" smooth="yes"/>
      <point x="931" y="662"/>
      <point x="969" y="564"/>
      <point x="969" y="440" type="curve" smooth="yes"/>
      <point x="969" y="293"/>
      <point x="924" y="180"/>
      <point x="833" y="101" type="curve" smooth="yes"/>
      <point x="742" y="22"/>
      <point x="613" y="-18"/>
      <point x="445" y="-18" type="curve" smooth="yes"/>
      <point x="298" y="-18"/>
      <point x="180" y="6"/>
      <point x="90" y="53" type="curve"/>
      <point x="90" y="293" type="line"/>
      <point x="137" y="268"/>
      <point x="192" y="248"/>
      <point x="255" y="232" type="curve" smooth="yes"/>
      <point x="318" y="216"/>
      <point x="378" y="208"/>
      <point x="435" y="208" type="curve" smooth="yes"/>
      <point x="604" y="208"/>
      <point x="689" y="278"/>
      <point x="689" y="417" type="curve" smooth="yes"/>
      <point x="689" y="550"/>
      <point x="601" y="616"/>
      <point x="426" y="616" type="curve" smooth="yes"/>
      <point x="394" y="616"/>
      <point x="359" y="613"/>
      <point x="320" y="606" type="curve" smooth="yes"/>
      <point x="282" y="600"/>
      <point x="251" y="593"/>
      <point x="227" y="586" type="curve"/>
      <point x="116" y="645" type="line"/>
      <point x="166" y="1316" type="line"/>
      <point x="879" y="1316" type="line"/>
      <point x="879" y="1080" type="line"/>
      <point x="409" y="1080" type="line"/>
      <point x="385" y="822" type="line"/>
      <point x="417" y="828" type="line"/>
      <point x="454" y="837"/>
      <point x="499" y="841"/>
    </contour>
  </outline>
</glyph>
<glyph name="six.deva" format="1">
  <advance width="1052"/>
  <unicode hex="0036"/>
  <outline>
    <contour>
      <point x="65" y="559" type="curve" smooth="yes"/>
      <point x="65" y="1079"/>
      <point x="285" y="1331"/>
      <point x="724" y="1331" type="curve" smooth="yes"/>
      <point x="799" y="1331"/>
      <point x="858" y="1327"/>
      <point x="901" y="1318" type="curve"/>
      <point x="901" y="1095" type="line"/>
      <point x="848" y="1107"/>
      <point x="795" y="1113"/>
      <point x="742" y="1113" type="curve" smooth="yes"/>
      <point x="647" y="1113"/>
      <point x="569" y="1099"/>
      <point x="508" y="1070" type="curve" smooth="yes"/>
      <point x="448" y="1041"/>
      <point x="403" y="999"/>
      <point x="373" y="942" type="curve" smooth="yes"/>
      <point x="343" y="886"/>
      <point x="325" y="806"/>
      <point x="320" y="702" type="curve"/>
      <point x="332" y="702" type="line"/>
      <point x="391" y="804"/>
      <point x="486" y="855"/>
      <point x="617" y="855" type="curve" smooth="yes"/>
      <point x="735" y="855"/>
      <point x="827" y="818"/>
      <point x="894" y="744" type="curve" smooth="yes"/>
      <point x="961" y="671"/>
      <point x="994" y="569"/>
      <point x="994" y="438" type="curve" smooth="yes"/>
      <point x="994" y="298"/>
      <point x="954" y="187"/>
      <point x="875" y="105" type="curve" smooth="yes"/>
      <point x="796" y="23"/>
      <point x="686" y="-18"/>
      <point x="545" y="-18" type="curve" smooth="yes"/>
      <point x="254" y="-18"/>
      <point x="65" y="192"/>
    </contour>
    <contour>
      <point x="540" y="204" type="curve" smooth="yes"/>
      <point x="659" y="204"/>
      <point x="724" y="287"/>
      <point x="724" y="435" type="curve" smooth="yes"/>
      <point x="724" y="563"/>
      <point x="665" y="642"/>
      <point x="545" y="642" type="curve" smooth="yes"/>
      <point x="489" y="642"/>
      <point x="441" y="624"/>
      <point x="401" y="587" type="curve" smooth="yes"/>
      <point x="361" y="550"/>
      <point x="341" y="508"/>
      <point x="341" y="459" type="curve" smooth="yes"/>
      <point x="341" y="388"/>
      <point x="360" y="327"/>
      <point x="397" y="278" type="curve" smooth="yes"/>
      <point x="435" y="229"/>
      <point x="483" y="204"/>
    </contour>
  </outline>
</glyph>
<glyph name="seven.deva" format="1">
  <advance width="1052"/>
  <unicode hex="0037"/>
  <outline>
    <contour>
      <point x="204" y="0" type="line"/>
      <point x="698" y="1080" type="line"/>
      <point x="49" y="1080" type="line"/>
      <point x="49" y="1314" type="line"/>
      <point x="994" y="1314" type="line"/>
      <point x="994" y="1139" type="line"/>
      <point x="496" y="0" type="line"/>
    </contour>
  </outline>
</glyph>
<glyph name="less.deva" format="1">
  <advance width="1052"/>
  <unicode hex="003C"/>
  <outline>
    <contour>
      <point x="973" y="183" type="line"/>
      <point x="79" y="577" type="line"/>
      <point x="79" y="706" type="line"/>
      <point x="973" y="1152" type="line"/>
      <point x="973" y="936" type="line"/>
      <point x="357" y="651" type="line"/>
      <point x="973" y="398" type="line"/>
    </contour>
  </outline>
</glyph>
<glyph name="equal.deva" format="1">
  <advance width="1047"/>
  <unicode hex="003D"/>
  <outline>
    <contour>
      <point x="80" y="747" type="line"/>
      <point x="80" y="946" type="line"/>
      <point x="966" y="946" type="line"/>
      <point x="966" y="747" type="line"/>
    </contour>
    <contour>
      <point x="80" y="352" type="line"/>
      <point x="80" y="552" type="line"/>
      <point x="966" y="552" type="line"/>
      <point x="966" y="352" type="line"/>
    </contour>
  </outline>
</glyph>
<glyph name="greater.deva" format="1">
  <advance width="1052"/>
  <unicode hex="003E"/>
  <outline>
    <contour>
      <point x="79" y="398" type="line"/>
      <point x="695" y="651" type="line"/>
      <point x="79" y="936" type="line"/>
      <point x="79" y="1152" type="line"/>
      <point x="973" y="706" type="line"/>
      <point x="973" y="577" type="line"/>
      <point x="79" y="183" type="line"/>
    </contour>
  </outline>
</glyph>
<glyph name="question.deva" format="1">
  <advance width="1434"/>
  <unicode hex="003F"/>
  <outline>
    <contour>
      <point x="543" y="436" type="line"/>
      <point x="543" y="503" type="line" smooth="yes"/>
      <point x="543" y="560"/>
      <point x="555" y="610"/>
      <point x="580" y="653" type="curve" smooth="yes"/>
      <point x="605" y="696"/>
      <point x="650" y="741"/>
      <point x="715" y="789" type="curve" smooth="yes"/>
      <point x="778" y="834"/>
      <point x="820" y="871"/>
      <point x="840" y="899" type="curve" smooth="yes"/>
      <point x="860" y="927"/>
      <point x="870" y="959"/>
      <point x="870" y="994" type="curve" smooth="yes"/>
      <point x="870" y="1071"/>
      <point x="810" y="1113"/>
      <point x="706" y="1113" type="curve" smooth="yes"/>
      <point x="616" y="1113"/>
      <point x="513" y="1084"/>
      <point x="398" y="1025" type="curve"/>
      <point x="300" y="1222" type="line"/>
      <point x="434" y="1297"/>
      <point x="576" y="1335"/>
      <point x="726" y="1335" type="curve" smooth="yes"/>
      <point x="849" y="1335"/>
      <point x="947" y="1305"/>
      <point x="1020" y="1245" type="curve" smooth="yes"/>
      <point x="1093" y="1186"/>
      <point x="1130" y="1107"/>
      <point x="1130" y="1008" type="curve" smooth="yes"/>
      <point x="1130" y="942"/>
      <point x="1115" y="885"/>
      <point x="1085" y="837" type="curve" smooth="yes"/>
      <point x="1055" y="789"/>
      <point x="998" y="735"/>
      <point x="914" y="675" type="curve"/>
      <point x="857" y="632"/>
      <point x="820" y="600"/>
      <point x="805" y="577" type="curve" smooth="yes"/>
      <point x="790" y="555"/>
      <point x="782" y="526"/>
      <point x="782" y="490" type="curve" smooth="yes"/>
      <point x="782" y="436" type="line"/>
    </contour>
    <contour>
      <point x="515" y="129" type="curve" smooth="yes"/>
      <point x="515" y="229"/>
      <point x="570" y="282"/>
      <point x="673" y="282" type="curve" smooth="yes"/>
      <point x="773" y="282"/>
      <point x="830" y="226"/>
      <point x="830" y="129" type="curve" smooth="yes"/>
      <point x="830" y="34"/>
      <point x="772" y="-24"/>
      <point x="673" y="-24" type="curve" smooth="yes"/>
      <point x="572" y="-24"/>
      <point x="515" y="32"/>
    </contour>
  </outline>
</glyph>
<glyph name="C" format="1">
  <advance width="1174"/>
  <unicode hex="0043"/>
  <outline>
    <contour>
      <point x="724" y="1102" type="curve" smooth="yes"/>
      <point x="619" y="1102"/>
      <point x="538" y="1063"/>
      <point x="480" y="984" type="curve" smooth="yes"/>
      <point x="423" y="905"/>
      <point x="394" y="795"/>
      <point x="394" y="654" type="curve" smooth="yes"/>
      <point x="394" y="361"/>
      <point x="504" y="214"/>
      <point x="724" y="214" type="curve" smooth="yes"/>
      <point x="817" y="214"/>
      <point x="929" y="237"/>
      <point x="1060" y="283" type="curve"/>
      <point x="1060" y="49" type="line"/>
      <point x="952" y="4"/>
      <point x="831" y="-18"/>
      <point x="698" y="-18" type="curve" smooth="yes"/>
      <point x="507" y="-18"/>
      <point x="360" y="40"/>
      <point x="259" y="156" type="curve" smooth="yes"/>
      <point x="158" y="272"/>
      <point x="107" y="439"/>
      <point x="107" y="656" type="curve"/>
      <point x="103" y="1066"/>
      <point x="348" y="1340"/>
      <point x="724" y="1335" type="curve"/>
      <point x="852" y="1335"/>
      <point x="981" y="1304"/>
      <point x="1110" y="1242" type="curve"/>
      <point x="1020" y="1015" type="line"/>
      <point x="921" y="1062"/>
      <point x="820" y="1102"/>
    </contour>
  </outline>
</glyph>
<glyph name="D" format="1">
  <advance width="1350"/>
  <unicode hex="0044"/>
  <outline>
    <contour>
      <point x="1249" y="680" type="curve" smooth="yes"/>
      <point x="1249" y="461"/>
      <point x="1189" y="293"/>
      <point x="1069" y="176" type="curve" smooth="yes"/>
      <point x="949" y="58"/>
      <point x="779" y="0"/>
      <point x="560" y="0" type="curve" smooth="yes"/>
      <point x="156" y="0" type="line"/>
      <point x="156" y="1316" type="line"/>
      <point x="593" y="1316" type="line"/>
      <point x="802" y="1316"/>
      <point x="963" y="1261"/>
      <point x="1077" y="1151" type="curve" smooth="yes"/>
      <point x="1191" y="1041"/>
      <point x="1249" y="884"/>
    </contour>
    <contour>
      <point x="955" y="670" type="curve" smooth="yes"/>
      <point x="955" y="948"/>
      <point x="833" y="1085"/>
      <point x="585" y="1085" type="curve" smooth="yes"/>
      <point x="438" y="1085" type="line"/>
      <point x="438" y="234" type="line"/>
      <point x="556" y="234" type="line"/>
      <point x="827" y="234"/>
      <point x="955" y="378"/>
    </contour>
  </outline>
</glyph>
<glyph name="F" format="1">
  <advance width="978"/>
  <unicode hex="0046"/>
  <outline>
    <contour>
      <point x="434" y="0" type="line"/>
      <point x="156" y="0" type="line"/>
      <point x="156" y="1316" type="line"/>
      <point x="918" y="1316" type="line"/>
      <point x="918" y="1085" type="line"/>
      <point x="434" y="1085" type="line"/>
      <point x="434" y="749" type="line"/>
      <point x="883" y="749" type="line"/>
      <point x="883" y="519" type="line"/>
      <point x="434" y="519" type="line"/>
    </contour>
  </outline>
</glyph>
<glyph name="H" format="1">
  <advance width="1393"/>
  <unicode hex="0048"/>
  <outline>
    <contour>
      <point x="1237" y="0" type="line"/>
      <point x="955" y="0" type="line"/>
      <point x="955" y="566" type="line"/>
      <point x="439" y="566" type="line"/>
      <point x="439" y="0" type="line"/>
      <point x="156" y="0" type="line"/>
      <point x="156" y="1316" type="line"/>
      <point x="439" y="1316" type="line"/>
      <point x="439" y="802" type="line"/>
      <point x="955" y="802" type="line"/>
      <point x="955" y="1316" type="line"/>
      <point x="1237" y="1316" type="line"/>
    </contour>
  </outline>
</glyph>
<glyph name="J" format="1">
  <advance width="569"/>
  <unicode hex="004A"/>
  <outline>
    <contour>
      <point x="29" y="-378" type="curve" smooth="yes"/>
      <point x="-29" y="-378"/>
      <point x="-69" y="-370"/>
      <point x="-98" y="-351" type="curve"/>
      <point x="-98" y="-115" type="line"/>
      <point x="-63" y="-127"/>
      <point x="-21" y="-133"/>
      <point x="33" y="-133" type="curve" smooth="yes"/>
      <point x="98" y="-133"/>
      <point x="140" y="-69"/>
      <point x="140" y="19" type="curve" smooth="yes"/>
      <point x="140" y="1316" type="line"/>
      <point x="420" y="1316" type="line"/>
      <point x="420" y="40" type="line"/>
      <point x="420" y="-202"/>
      <point x="268" y="-378"/>
    </contour>
  </outline>
</glyph>
<glyph name="L" format="1">
  <advance width="1031"/>
  <unicode hex="004C"/>
  <outline>
    <contour>
      <point x="156" y="0" type="line"/>
      <point x="156" y="1316" type="line"/>
      <point x="438" y="1316" type="line"/>
      <point x="438" y="233" type="line"/>
      <point x="971" y="233" type="line"/>
      <point x="971" y="0" type="line"/>
    </contour>
  </outline>
</glyph>
<glyph name="R" format="1">
  <advance width="1208"/>
  <unicode hex="0052"/>
  <outline>
    <contour>
      <point x="438" y="504" type="line"/>
      <point x="438" y="0" type="line"/>
      <point x="156" y="0" type="line"/>
      <point x="156" y="1316" type="line"/>
      <point x="562" y="1316" type="line"/>
      <point x="907" y="1316"/>
      <point x="1075" y="1188"/>
      <point x="1075" y="933" type="curve" smooth="yes"/>
      <point x="1075" y="773"/>
      <point x="996" y="655"/>
      <point x="837" y="580" type="curve"/>
      <point x="1211" y="0" type="line"/>
      <point x="889" y="0" type="line"/>
      <point x="595" y="504" type="line"/>
    </contour>
    <contour>
      <point x="438" y="722" type="line"/>
      <point x="557" y="722" type="line"/>
      <point x="715" y="722"/>
      <point x="790" y="787"/>
      <point x="790" y="920" type="curve" smooth="yes"/>
      <point x="790" y="1041"/>
      <point x="716" y="1096"/>
      <point x="555" y="1096" type="curve" smooth="yes"/>
      <point x="438" y="1096" type="line"/>
    </contour>
  </outline>
</glyph>
<glyph name="S" format="1">
  <advance width="1045"/>
  <unicode hex="0053"/>
  <outline>
    <contour>
      <point x="974" y="382" type="curve"/>
      <point x="976" y="184"/>
      <point x="830" y="39"/>
      <point x="600" y="17" type="curve"/>
      <point x="514" y="-6"/>
      <point x="425" y="-14"/>
      <point x="335" y="-7" type="curve" smooth="yes"/>
      <point x="241" y="2"/>
      <point x="157" y="22"/>
      <point x="86" y="57" type="curve"/>
      <point x="86" y="312" type="line"/>
      <point x="169" y="273"/>
      <point x="262" y="245"/>
      <point x="354" y="233" type="curve" smooth="yes"/>
      <point x="475" y="221"/>
      <point x="556" y="244"/>
      <point x="594" y="295" type="curve" smooth="yes"/>
      <point x="661" y="311"/>
      <point x="688" y="351"/>
      <point x="681" y="397" type="curve" smooth="yes"/>
      <point x="675" y="420"/>
      <point x="660" y="440"/>
      <point x="638" y="457" type="curve" smooth="yes"/>
      <point x="616" y="474"/>
      <point x="582" y="493"/>
      <point x="537" y="514" type="curve" smooth="yes"/>
      <point x="478" y="539"/>
      <point x="409" y="575"/>
      <point x="329" y="625" type="curve" smooth="yes"/>
      <point x="256" y="671"/>
      <point x="205" y="723"/>
      <point x="178" y="782" type="curve" smooth="yes"/>
      <point x="124" y="865"/>
      <point x="112" y="953"/>
      <point x="140" y="1057" type="curve" smooth="yes"/>
      <point x="168" y="1156"/>
      <point x="233" y="1227"/>
      <point x="334" y="1270" type="curve" smooth="yes"/>
      <point x="438" y="1313"/>
      <point x="559" y="1326"/>
      <point x="697" y="1309" type="curve" smooth="yes"/>
      <point x="783" y="1309"/>
      <point x="854" y="1239"/>
      <point x="944" y="1199" type="curve"/>
      <point x="904" y="1216"/>
      <point x="797" y="1051"/>
      <point x="760" y="1051" type="curve"/>
      <point x="622" y="1086"/>
      <point x="519" y="1077"/>
      <point x="463" y="1032" type="curve" smooth="yes"/>
      <point x="404" y="1015"/>
      <point x="382" y="979"/>
      <point x="388" y="938" type="curve" smooth="yes"/>
      <point x="394" y="910"/>
      <point x="413" y="886"/>
      <point x="444" y="864" type="curve" smooth="yes"/>
      <point x="476" y="842"/>
      <point x="544" y="809"/>
      <point x="649" y="764" type="curve" smooth="yes"/>
      <point x="771" y="714"/>
      <point x="856" y="660"/>
      <point x="903" y="601" type="curve"/>
      <point x="950" y="544"/>
      <point x="974" y="471"/>
    </contour>
  </outline>
</glyph>
<glyph name="T" format="1">
  <advance width="1067"/>
  <unicode hex="0054"/>
  <outline>
    <contour>
      <point x="673" y="0" type="line"/>
      <point x="394" y="0" type="line"/>
      <point x="394" y="1084" type="line"/>
      <point x="37" y="1084" type="line"/>
      <point x="37" y="1316" type="line"/>
      <point x="1030" y="1316" type="line"/>
      <point x="1030" y="1084" type="line"/>
      <point x="673" y="1084" type="line"/>
    </contour>
  </outline>
</glyph>
<glyph name="Y" format="1">
  <advance width="1150"/>
  <unicode hex="0059"/>
  <outline>
    <contour>
      <point x="575" y="774" type="line"/>
      <point x="850" y="1316" type="line"/>
      <point x="1150" y="1316" type="line"/>
      <point x="714" y="512" type="line"/>
      <point x="714" y="0" type="line"/>
      <point x="436" y="0" type="line"/>
      <point x="436" y="503" type="line"/>
      <point x="0" y="1316" type="line"/>
      <point x="302" y="1316" type="line"/>
    </contour>
  </outline>
</glyph>
<glyph name="bracketright.deva" format="1">
  <advance width="601"/>
  <unicode hex="005D"/>
  <outline>
    <contour>
      <point x="43" y="-111" type="line"/>
      <point x="243" y="-111" type="line"/>
      <point x="243" y="1148" type="line"/>
      <point x="43" y="1148" type="line"/>
      <point x="43" y="1339" type="line"/>
      <point x="479" y="1339" type="line"/>
      <point x="479" y="-303" type="line"/>
      <point x="43" y="-303" type="line"/>
    </contour>
  </outline>
</glyph>
<glyph name="asciicircum.deva" format="1">
  <advance width="981"/>
  <unicode hex="005E"/>
  <outline>
    <contour>
      <point x="7" y="468" type="line"/>
      <point x="401" y="1323" type="line"/>
      <point x="531" y="1323" type="line"/>
      <point x="976" y="468" type="line"/>
      <point x="761" y="468" type="line"/>
      <point x="472" y="1047" type="line"/>
      <point x="220" y="468" type="line"/>
    </contour>
  </outline>
</glyph>
<glyph name="underscore.deva" format="1">
  <advance width="887"/>
  <unicode hex="005F"/>
  <outline>
    <contour>
      <point x="890" y="-320" type="line"/>
      <point x="-4" y="-320" type="line"/>
      <point x="-4" y="-137" type="line"/>
      <point x="890" y="-137" type="line"/>
    </contour>
  </outline>
</glyph>
<glyph name="grave" format="1">
  <advance width="1092"/>
  <unicode hex="0060"/>
  <outline>
    <contour>
      <point x="646" y="1241" type="line"/>
      <point x="617" y="1260"/>
      <point x="555" y="1290"/>
      <point x="497" y="1330" type="curve" smooth="yes"/>
      <point x="424" y="1385"/>
      <point x="358" y="1436"/>
      <point x="302" y="1483" type="curve"/>
      <point x="286" y="1499"/>
      <point x="276" y="1524"/>
      <point x="270" y="1532" type="curve"/>
      <point x="549" y="1536" type="line"/>
      <point x="571" y="1506"/>
      <point x="650" y="1456"/>
      <point x="716" y="1386" type="curve"/>
      <point x="720" y="1377"/>
      <point x="767" y="1322"/>
      <point x="779" y="1307" type="curve"/>
      <point x="791" y="1291"/>
      <point x="803" y="1258"/>
      <point x="815" y="1245" type="curve"/>
    </contour>
  </outline>
</glyph>
<glyph name="a" format="1">
  <advance width="1113"/>
  <unicode hex="0061"/>
  <outline>
    <contour>
      <point x="783" y="0" type="line"/>
      <point x="730" y="137" type="line"/>
      <point x="723" y="137" type="line"/>
      <point x="676" y="78"/>
      <point x="629" y="38"/>
      <point x="580" y="15" type="curve" smooth="yes"/>
      <point x="531" y="-7"/>
      <point x="468" y="-18"/>
      <point x="389" y="-18" type="curve" smooth="yes"/>
      <point x="196" y="-18"/>
      <point x="77" y="97"/>
      <point x="77" y="301" type="curve" smooth="yes"/>
      <point x="77" y="514"/>
      <point x="226" y="610"/>
      <point x="527" y="621" type="curve"/>
      <point x="702" y="626" type="line"/>
      <point x="702" y="670" type="line" smooth="yes"/>
      <point x="702" y="772"/>
      <point x="650" y="823"/>
      <point x="545" y="823" type="curve" smooth="yes"/>
      <point x="465" y="823"/>
      <point x="371" y="799"/>
      <point x="262" y="751" type="curve"/>
      <point x="171" y="936" type="line"/>
      <point x="287" y="997"/>
      <point x="415" y="1027"/>
      <point x="556" y="1027" type="curve" smooth="yes"/>
      <point x="827" y="1027"/>
      <point x="975" y="910"/>
      <point x="975" y="670" type="curve" smooth="yes"/>
      <point x="975" y="0" type="line"/>
    </contour>
    <contour>
      <point x="702" y="466" type="line"/>
      <point x="596" y="463" type="line" smooth="yes"/>
      <point x="436" y="458"/>
      <point x="359" y="407"/>
      <point x="359" y="299" type="curve" smooth="yes"/>
      <point x="359" y="222"/>
      <point x="403" y="183"/>
      <point x="492" y="183" type="curve" smooth="yes"/>
      <point x="620" y="183"/>
      <point x="702" y="262"/>
      <point x="702" y="383" type="curve" smooth="yes"/>
    </contour>
  </outline>
</glyph>
<glyph name="c" format="1">
  <advance width="948"/>
  <unicode hex="0063"/>
  <outline>
    <contour>
      <point x="553" y="-18" type="curve" smooth="yes"/>
      <point x="240" y="-18"/>
      <point x="83" y="154"/>
      <point x="83" y="498" type="curve" smooth="yes"/>
      <point x="83" y="839"/>
      <point x="258" y="1025"/>
      <point x="577" y="1025" type="curve" smooth="yes"/>
      <point x="693" y="1025"/>
      <point x="797" y="1002"/>
      <point x="890" y="957" type="curve"/>
      <point x="809" y="744" type="line"/>
      <point x="722" y="779"/>
      <point x="652" y="804"/>
      <point x="577" y="804" type="curve" smooth="yes"/>
      <point x="434" y="804"/>
      <point x="363" y="702"/>
      <point x="363" y="499" type="curve" smooth="yes"/>
      <point x="363" y="302"/>
      <point x="434" y="204"/>
      <point x="577" y="204" type="curve" smooth="yes"/>
      <point x="682" y="204"/>
      <point x="768" y="232"/>
      <point x="859" y="292" type="curve"/>
      <point x="859" y="57" type="line"/>
      <point x="814" y="28"/>
      <point x="769" y="9"/>
      <point x="724" y="-2" type="curve" smooth="yes"/>
      <point x="679" y="-13"/>
      <point x="622" y="-18"/>
    </contour>
  </outline>
</glyph>
<glyph name="d" format="1">
  <advance width="1166"/>
  <unicode hex="0064"/>
  <outline>
    <contour>
      <point x="463" y="-18" type="curve" smooth="yes"/>
      <point x="344" y="-18"/>
      <point x="251" y="28"/>
      <point x="184" y="119" type="curve" smooth="yes"/>
      <point x="117" y="211"/>
      <point x="83" y="338"/>
      <point x="83" y="501" type="curve" smooth="yes"/>
      <point x="83" y="666"/>
      <point x="117" y="795"/>
      <point x="186" y="887" type="curve" smooth="yes"/>
      <point x="255" y="979"/>
      <point x="349" y="1025"/>
      <point x="470" y="1025" type="curve" smooth="yes"/>
      <point x="597" y="1025"/>
      <point x="693" y="976"/>
      <point x="760" y="877" type="curve"/>
      <point x="769" y="877" type="line"/>
      <point x="755" y="952"/>
      <point x="748" y="1019"/>
      <point x="748" y="1078" type="curve" smooth="yes"/>
      <point x="748" y="1400" type="line"/>
      <point x="1023" y="1400" type="line"/>
      <point x="1023" y="0" type="line"/>
      <point x="813" y="0" type="line"/>
      <point x="760" y="130" type="line"/>
      <point x="748" y="130" type="line"/>
      <point x="685" y="31"/>
      <point x="590" y="-18"/>
    </contour>
    <contour>
      <point x="559" y="201" type="curve" smooth="yes"/>
      <point x="629" y="201"/>
      <point x="680" y="221"/>
      <point x="713" y="262" type="curve" smooth="yes"/>
      <point x="746" y="303"/>
      <point x="764" y="372"/>
      <point x="767" y="470" type="curve"/>
      <point x="767" y="499" type="line" smooth="yes"/>
      <point x="767" y="715"/>
      <point x="705" y="802"/>
      <point x="554" y="802" type="curve" smooth="yes"/>
      <point x="433" y="802"/>
      <point x="361" y="695"/>
      <point x="361" y="498" type="curve" smooth="yes"/>
      <point x="361" y="299"/>
      <point x="431" y="201"/>
    </contour>
  </outline>
</glyph>
<glyph name="e" format="1">
  <advance width="1089"/>
  <unicode hex="0065"/>
  <outline>
    <contour>
      <point x="561" y="830" type="curve" smooth="yes"/>
      <point x="444" y="830"/>
      <point x="376" y="753"/>
      <point x="367" y="617" type="curve"/>
      <point x="752" y="617" type="line"/>
      <point x="751" y="753"/>
      <point x="677" y="830"/>
    </contour>
    <contour>
      <point x="599" y="-18" type="curve" smooth="yes"/>
      <point x="437" y="-18"/>
      <point x="310" y="27"/>
      <point x="219" y="116" type="curve" smooth="yes"/>
      <point x="128" y="205"/>
      <point x="83" y="332"/>
      <point x="83" y="496" type="curve" smooth="yes"/>
      <point x="83" y="665"/>
      <point x="125" y="795"/>
      <point x="209" y="887" type="curve" smooth="yes"/>
      <point x="294" y="979"/>
      <point x="410" y="1025"/>
      <point x="559" y="1025" type="curve" smooth="yes"/>
      <point x="701" y="1025"/>
      <point x="812" y="984"/>
      <point x="891" y="903" type="curve" smooth="yes"/>
      <point x="970" y="822"/>
      <point x="1010" y="711"/>
      <point x="1010" y="568" type="curve" smooth="yes"/>
      <point x="1010" y="435" type="line"/>
      <point x="361" y="435" type="line"/>
      <point x="366" y="279"/>
      <point x="456" y="186"/>
      <point x="612" y="186" type="curve" smooth="yes"/>
      <point x="733" y="186"/>
      <point x="836" y="210"/>
      <point x="953" y="265" type="curve"/>
      <point x="953" y="53" type="line"/>
      <point x="905" y="29"/>
      <point x="854" y="11"/>
      <point x="799" y="0" type="curve" smooth="yes"/>
      <point x="744" y="-12"/>
      <point x="678" y="-18"/>
    </contour>
  </outline>
</glyph>
<glyph name="m" format="1">
  <advance width="1810"/>
  <unicode hex="006D"/>
  <outline>
    <contour>
      <point x="1045" y="0" type="line"/>
      <point x="770" y="0" type="line"/>
      <point x="770" y="588" type="line" smooth="yes"/>
      <point x="770" y="733"/>
      <point x="723" y="805"/>
      <point x="619" y="805" type="curve" smooth="yes"/>
      <point x="549" y="805"/>
      <point x="498" y="779"/>
      <point x="466" y="728" type="curve" smooth="yes"/>
      <point x="434" y="677"/>
      <point x="418" y="592"/>
      <point x="418" y="473" type="curve" smooth="yes"/>
      <point x="418" y="0" type="line"/>
      <point x="144" y="0" type="line"/>
      <point x="144" y="1006" type="line"/>
      <point x="354" y="1006" type="line"/>
      <point x="391" y="877" type="line"/>
      <point x="406" y="877" type="line"/>
      <point x="459" y="970"/>
      <point x="566" y="1025"/>
      <point x="698" y="1025" type="curve" smooth="yes"/>
      <point x="849" y="1025"/>
      <point x="951" y="976"/>
      <point x="1004" y="877" type="curve"/>
      <point x="1029" y="877" type="line"/>
      <point x="1082" y="972"/>
      <point x="1194" y="1025"/>
      <point x="1326" y="1025" type="curve" smooth="yes"/>
      <point x="1554" y="1025"/>
      <point x="1672" y="915"/>
      <point x="1672" y="656" type="curve" smooth="yes"/>
      <point x="1672" y="0" type="line"/>
      <point x="1397" y="0" type="line"/>
      <point x="1397" y="588" type="line" smooth="yes"/>
      <point x="1397" y="733"/>
      <point x="1350" y="805"/>
      <point x="1246" y="805" type="curve" smooth="yes"/>
      <point x="1111" y="805"/>
      <point x="1045" y="713"/>
      <point x="1045" y="505" type="curve" smooth="yes"/>
    </contour>
  </outline>
</glyph>
<glyph name="n" format="1">
  <advance width="1211"/>
  <unicode hex="006E"/>
  <outline>
    <contour>
      <point x="1073" y="0" type="line"/>
      <point x="798" y="0" type="line"/>
      <point x="798" y="588" type="line" smooth="yes"/>
      <point x="798" y="733"/>
      <point x="749" y="805"/>
      <point x="636" y="805" type="curve" smooth="yes"/>
      <point x="559" y="805"/>
      <point x="504" y="779"/>
      <point x="469" y="728" type="curve" smooth="yes"/>
      <point x="435" y="677"/>
      <point x="418" y="592"/>
      <point x="418" y="473" type="curve" smooth="yes"/>
      <point x="418" y="0" type="line"/>
      <point x="144" y="0" type="line"/>
      <point x="144" y="1006" type="line"/>
      <point x="354" y="1006" type="line"/>
      <point x="391" y="877" type="line"/>
      <point x="406" y="877" type="line"/>
      <point x="467" y="974"/>
      <point x="579" y="1025"/>
      <point x="715" y="1025" type="curve" smooth="yes"/>
      <point x="950" y="1025"/>
      <point x="1073" y="895"/>
      <point x="1073" y="656" type="curve" smooth="yes"/>
    </contour>
  </outline>
</glyph>
<glyph name="t" format="1">
  <advance width="776"/>
  <unicode hex="0074"/>
  <outline>
    <contour>
      <point x="568" y="203" type="curve" smooth="yes"/>
      <point x="618" y="203"/>
      <point x="673" y="215"/>
      <point x="726" y="232" type="curve"/>
      <point x="726" y="28" type="line"/>
      <point x="690" y="12"/>
      <point x="652" y="1"/>
      <point x="613" y="-7" type="curve" smooth="yes"/>
      <point x="574" y="-14"/>
      <point x="532" y="-18"/>
      <point x="487" y="-18" type="curve" smooth="yes"/>
      <point x="267" y="-18"/>
      <point x="170" y="91"/>
      <point x="170" y="317" type="curve" smooth="yes"/>
      <point x="170" y="798" type="line"/>
      <point x="41" y="798" type="line"/>
      <point x="41" y="915" type="line"/>
      <point x="191" y="1008" type="line"/>
      <point x="272" y="1221" type="line"/>
      <point x="450" y="1221" type="line"/>
      <point x="450" y="1008" type="line"/>
      <point x="714" y="1008" type="line"/>
      <point x="714" y="798" type="line"/>
      <point x="450" y="798" type="line"/>
      <point x="450" y="334" type="line"/>
      <point x="450" y="248"/>
      <point x="492" y="203"/>
    </contour>
  </outline>
</glyph>
<glyph name="u" format="1">
  <advance width="1223"/>
  <unicode hex="0075"/>
  <outline>
    <contour>
      <point x="420" y="1003" type="line"/>
      <point x="420" y="348" type="line"/>
      <point x="420" y="265"/>
      <point x="472" y="199"/>
      <point x="589" y="199" type="curve" smooth="yes"/>
      <point x="737" y="199"/>
      <point x="798" y="294"/>
      <point x="798" y="531" type="curve" smooth="yes"/>
      <point x="798" y="1003" type="line"/>
      <point x="1078" y="1003" type="line"/>
      <point x="1078" y="0" type="line"/>
      <point x="854" y="0" type="line"/>
      <point x="820" y="126" type="line"/>
      <point x="807" y="126" type="line"/>
      <point x="751" y="39"/>
      <point x="638" y="-18"/>
      <point x="549" y="-18" type="curve" smooth="yes"/>
      <point x="273" y="-18"/>
      <point x="138" y="67"/>
      <point x="138" y="345" type="curve" smooth="yes"/>
      <point x="138" y="1003" type="line"/>
    </contour>
  </outline>
</glyph>
<glyph name="v" format="1">
  <advance width="1048"/>
  <unicode hex="0076"/>
  <outline>
    <contour>
      <point x="383" y="0" type="line"/>
      <point x="0" y="1006" type="line"/>
      <point x="287" y="1006" type="line"/>
      <point x="481" y="433" type="line"/>
      <point x="503" y="360"/>
      <point x="517" y="292"/>
      <point x="522" y="227" type="curve"/>
      <point x="527" y="227" type="line"/>
      <point x="530" y="284"/>
      <point x="544" y="353"/>
      <point x="568" y="433" type="curve"/>
      <point x="761" y="1006" type="line"/>
      <point x="1048" y="1006" type="line"/>
      <point x="665" y="0" type="line"/>
    </contour>
  </outline>
</glyph>
<glyph name="y" format="1">
  <advance width="1048"/>
  <unicode hex="0079"/>
  <outline>
    <contour>
      <point x="0" y="1006" type="line"/>
      <point x="301" y="1006" type="line"/>
      <point x="490" y="440" type="line" smooth="yes"/>
      <point x="507" y="391"/>
      <point x="518" y="332"/>
      <point x="524" y="265" type="curve"/>
      <point x="529" y="265" type="line"/>
      <point x="536" y="327"/>
      <point x="549" y="385"/>
      <point x="568" y="440" type="curve"/>
      <point x="754" y="1006" type="line"/>
      <point x="1048" y="1006" type="line"/>
      <point x="623" y="-129" type="line" smooth="yes"/>
      <point x="544" y="-338"/>
      <point x="395" y="-443"/>
      <point x="202" y="-443" type="curve" smooth="yes"/>
      <point x="155" y="-443"/>
      <point x="108" y="-438"/>
      <point x="63" y="-428" type="curve"/>
      <point x="63" y="-210" type="line"/>
      <point x="96" y="-217"/>
      <point x="132" y="-221"/>
      <point x="171" y="-221" type="curve" smooth="yes"/>
      <point x="268" y="-221"/>
      <point x="343" y="-162"/>
      <point x="383" y="-42" type="curve" smooth="yes"/>
      <point x="400" y="7" type="line"/>
    </contour>
  </outline>
</glyph>
<glyph name="z" format="1">
  <advance width="908"/>
  <unicode hex="007A"/>
  <outline>
    <contour>
      <point x="852" y="0" type="line"/>
      <point x="55" y="0" type="line"/>
      <point x="55" y="165" type="line"/>
      <point x="519" y="794" type="line"/>
      <point x="82" y="794" type="line"/>
      <point x="82" y="1008" type="line"/>
      <point x="834" y="1008" type="line"/>
      <point x="834" y="827" type="line"/>
      <point x="384" y="213" type="line"/>
      <point x="852" y="213" type="line"/>
    </contour>
  </outline>
</glyph>
<glyph name="bar.deva" format="1">
  <advance width="1015"/>
  <unicode hex="007C"/>
  <outline>
    <contour>
      <point x="409" y="1395" type="line"/>
      <point x="607" y="1395" type="line"/>
      <point x="607" y="-419" type="line"/>
      <point x="409" y="-419" type="line"/>
    </contour>
  </outline>
</glyph>
<glyph name="aadeva" format="1">
  <advance width="2304"/>
  <unicode hex="0906"/>
  <outline>
    <contour>
      <point x="665" y="795" type="line"/>
      <point x="811" y="727"/>
      <point x="918" y="619"/>
      <point x="918" y="444" type="curve" smooth="yes"/>
      <point x="918" y="260"/>
      <point x="769" y="109"/>
      <point x="531" y="109" type="curve" smooth="yes"/>
      <point x="356" y="109"/>
      <point x="218" y="165"/>
      <point x="77" y="260" type="curve"/>
      <point x="134" y="470" type="line"/>
      <point x="256" y="381"/>
      <point x="362" y="339"/>
      <point x="471" y="339" type="curve" smooth="yes"/>
      <point x="591" y="339"/>
      <point x="655" y="401"/>
      <point x="655" y="493" type="curve" smooth="yes"/>
      <point x="655" y="569"/>
      <point x="600" y="627"/>
      <point x="504" y="665" type="curve"/>
    </contour>
    <contour>
      <point x="862" y="962" type="curve" smooth="yes"/>
      <point x="862" y="755"/>
      <point x="683" y="621"/>
      <point x="330" y="602" type="curve" smooth="yes"/>
      <point x="309" y="601" type="line"/>
      <point x="259" y="816" type="line"/>
      <point x="270" y="816" type="line"/>
      <point x="541" y="830"/>
      <point x="611" y="896"/>
      <point x="611" y="984" type="curve" smooth="yes"/>
      <point x="611" y="1046"/>
      <point x="560" y="1084"/>
      <point x="469" y="1084" type="curve" smooth="yes"/>
      <point x="381" y="1084"/>
      <point x="297" y="1057"/>
      <point x="193" y="1000" type="curve"/>
      <point x="126" y="1219" type="line"/>
      <point x="225" y="1266"/>
      <point x="334" y="1297"/>
      <point x="481" y="1297" type="curve" smooth="yes"/>
      <point x="723" y="1297"/>
      <point x="862" y="1160"/>
    </contour>
    <contour>
      <point x="732" y="687" type="line"/>
      <point x="795" y="664"/>
      <point x="859" y="654"/>
      <point x="944" y="654" type="curve" smooth="yes"/>
      <point x="1034" y="654"/>
      <point x="1150" y="682"/>
      <point x="1214" y="738" type="curve"/>
      <point x="1214" y="470" type="line"/>
      <point x="1180" y="459"/>
      <point x="1094" y="445"/>
      <point x="1027" y="445" type="curve" smooth="yes"/>
      <point x="936" y="445"/>
      <point x="865" y="454"/>
      <point x="774" y="467" type="curve"/>
    </contour>
    <contour>
      <point x="1813" y="1133" type="line"/>
      <point x="2099" y="1133" type="line"/>
      <point x="2099" y="0" type="line"/>
      <point x="1813" y="0" type="line"/>
    </contour>
    <contour>
      <point x="1177" y="1133" type="line"/>
      <point x="1463" y="1133" type="line"/>
      <point x="1463" y="0" type="line"/>
      <point x="1177" y="0" type="line"/>
    </contour>
    <contour>
      <point x="2333" y="1096" type="line"/>
      <point x="993" y="1096" type="line"/>
      <point x="993" y="1289" type="line"/>
      <point x="2333" y="1289" type="line"/>
    </contour>
  </outline>
</glyph>
<glyph name="ideva" format="1">
  <advance width="1106"/>
  <unicode hex="0907"/>
  <outline>
    <contour>
      <point x="540" y="138" type="line"/>
      <point x="833" y="-175" type="line"/>
      <point x="656" y="-290" type="line"/>
      <point x="321" y="76" type="line"/>
      <point x="439" y="-4" type="line"/>
      <point x="191" y="-4"/>
      <point x="97" y="95"/>
      <point x="97" y="174" type="curve" smooth="yes"/>
      <point x="97" y="246"/>
      <point x="159" y="311"/>
      <point x="250" y="311" type="curve" smooth="yes"/>
      <point x="332" y="311"/>
      <point x="412" y="273"/>
      <point x="518" y="164" type="curve"/>
    </contour>
    <contour>
      <point x="618" y="1121" type="line"/>
      <point x="904" y="1121" type="line"/>
      <point x="904" y="757" type="line"/>
      <point x="461" y="757" type="line"/>
      <point x="369" y="757"/>
      <point x="334" y="717"/>
      <point x="334" y="667" type="curve" smooth="yes"/>
      <point x="334" y="623"/>
      <point x="365" y="589"/>
      <point x="439" y="557" type="curve"/>
      <point x="337" y="568" type="line"/>
      <point x="430" y="605"/>
      <point x="534" y="629"/>
      <point x="662" y="629" type="curve" smooth="yes"/>
      <point x="861" y="629"/>
      <point x="1005" y="514"/>
      <point x="1005" y="344" type="curve" smooth="yes"/>
      <point x="1005" y="152"/>
      <point x="837" y="5"/>
      <point x="486" y="5" type="curve"/>
      <point x="441" y="206" type="line"/>
      <point x="669" y="206"/>
      <point x="751" y="274"/>
      <point x="751" y="340" type="curve" smooth="yes"/>
      <point x="751" y="393"/>
      <point x="706" y="424"/>
      <point x="625" y="424" type="curve" smooth="yes"/>
      <point x="560" y="424"/>
      <point x="471" y="400"/>
      <point x="396" y="365" type="curve"/>
      <point x="388" y="365" type="line"/>
      <point x="165" y="468"/>
      <point x="83" y="583"/>
      <point x="83" y="710" type="curve" smooth="yes"/>
      <point x="83" y="834"/>
      <point x="177" y="947"/>
      <point x="402" y="947" type="curve" smooth="yes"/>
      <point x="678" y="947" type="line"/>
      <point x="618" y="887" type="line"/>
    </contour>
    <contour>
      <point x="1136" y="1096" type="line"/>
      <point x="-30" y="1096" type="line"/>
      <point x="-30" y="1289" type="line"/>
      <point x="1136" y="1289" type="line"/>
    </contour>
  </outline>
</glyph>
<glyph name="udeva" format="1">
  <advance width="1107"/>
  <unicode hex="0909"/>
  <outline>
    <contour>
      <point x="321" y="568" type="line"/>
      <point x="269" y="792" type="line"/>
      <point x="290" y="794" type="line"/>
      <point x="577" y="809"/>
      <point x="650" y="883"/>
      <point x="650" y="974" type="curve" smooth="yes"/>
      <point x="650" y="1040"/>
      <point x="614" y="1086"/>
      <point x="505" y="1111" type="curve"/>
      <point x="592" y="1265" type="line"/>
      <point x="793" y="1229"/>
      <point x="908" y="1132"/>
      <point x="908" y="942" type="curve" smooth="yes"/>
      <point x="908" y="746"/>
      <point x="740" y="590"/>
      <point x="342" y="569" type="curve" smooth="yes"/>
    </contour>
    <contour>
      <point x="-30" y="1096" type="line"/>
      <point x="-30" y="1289" type="line"/>
      <point x="1137" y="1289" type="line"/>
      <point x="1137" y="1096" type="line"/>
    </contour>
    <contour>
      <point x="687" y="761" type="line"/>
      <point x="878" y="686"/>
      <point x="995" y="538"/>
      <point x="995" y="367" type="curve" smooth="yes"/>
      <point x="995" y="159"/>
      <point x="842" y="12"/>
      <point x="574" y="12" type="curve" smooth="yes"/>
      <point x="392" y="12"/>
      <point x="211" y="77"/>
      <point x="50" y="186" type="curve"/>
      <point x="123" y="403" type="line"/>
      <point x="255" y="307"/>
      <point x="403" y="249"/>
      <point x="520" y="249" type="curve" smooth="yes"/>
      <point x="646" y="249"/>
      <point x="722" y="314"/>
      <point x="722" y="410" type="curve" smooth="yes"/>
      <point x="722" y="497"/>
      <point x="653" y="585"/>
      <point x="513" y="618" type="curve"/>
    </contour>
    <contour>
      <point x="529" y="1289" type="move" name="top"/>
    </contour>
  </outline>
</glyph>
<glyph name="uudeva" format="1">
  <advance width="1613"/>
  <unicode hex="090A"/>
  <outline>
    <contour>
      <point x="899" y="371" type="curve"/>
      <point x="757" y="639" type="line"/>
      <point x="855" y="700"/>
      <point x="982" y="751"/>
      <point x="1109" y="751" type="curve" smooth="yes"/>
      <point x="1369" y="751"/>
      <point x="1530" y="589"/>
      <point x="1530" y="376" type="curve" smooth="yes"/>
      <point x="1530" y="242"/>
      <point x="1479" y="115"/>
      <point x="1405" y="18" type="curve"/>
      <point x="1156" y="112" type="line"/>
      <point x="1231" y="215"/>
      <point x="1280" y="312"/>
      <point x="1280" y="402" type="curve" smooth="yes"/>
      <point x="1280" y="476"/>
      <point x="1234" y="525"/>
      <point x="1151" y="525" type="curve" smooth="yes"/>
      <point x="1064" y="525"/>
      <point x="973" y="468"/>
    </contour>
    <contour>
      <point x="1117" y="1096" type="line"/>
      <point x="1110" y="1289" type="line"/>
      <point x="1643" y="1289" type="line"/>
      <point x="1643" y="1096" type="line"/>
    </contour>
    <component base="udeva"/>
    <contour>
      <point x="529" y="1289" type="move" name="top"/>
    </contour>
  </outline>
</glyph>
<glyph name="rvocalicdeva" format="1">
  <advance width="1746"/>
  <unicode hex="090B"/>
  <outline>
    <contour>
      <point x="1098" y="1096" type="line"/>
      <point x="1098" y="1289" type="line"/>
      <point x="1776" y="1289" type="line"/>
      <point x="1776" y="1096" type="line"/>
    </contour>
    <contour>
      <point x="965" y="735" type="line"/>
      <point x="1005" y="692"/>
      <point x="1046" y="674"/>
      <point x="1115" y="674" type="curve" smooth="yes"/>
      <point x="1187" y="674"/>
      <point x="1255" y="689"/>
      <point x="1340" y="735" type="curve"/>
      <point x="1251" y="651" type="line"/>
      <point x="1221" y="703"/>
      <point x="1206" y="740"/>
      <point x="1206" y="781" type="curve" smooth="yes"/>
      <point x="1206" y="838"/>
      <point x="1250" y="889"/>
      <point x="1355" y="888" type="curve" smooth="yes"/>
      <point x="1510" y="888"/>
      <point x="1631" y="806"/>
      <point x="1631" y="717" type="curve" smooth="yes"/>
      <point x="1631" y="573"/>
      <point x="1419" y="452"/>
      <point x="1135" y="452" type="curve" smooth="yes"/>
      <point x="1039" y="452"/>
      <point x="953" y="470"/>
      <point x="864" y="515" type="curve"/>
    </contour>
    <contour>
      <point x="1299" y="554" type="curve"/>
      <point x="1496" y="654" type="line"/>
      <point x="1597" y="528"/>
      <point x="1651" y="423"/>
      <point x="1651" y="314" type="curve" smooth="yes"/>
      <point x="1651" y="179"/>
      <point x="1547" y="54"/>
      <point x="1331" y="25" type="curve"/>
      <point x="1198" y="198" type="line"/>
      <point x="1348" y="232"/>
      <point x="1398" y="288"/>
      <point x="1398" y="361" type="curve" smooth="yes"/>
      <point x="1398" y="416"/>
      <point x="1368" y="475"/>
    </contour>
    <component base="taradeva"/>
    <contour>
      <point x="881" y="1271" type="move" name="mark0"/>
    </contour>
  </outline>
</glyph>
<glyph name="gadeva" format="1">
  <advance width="1424"/>
  <unicode hex="0917"/>
  <outline>
    <contour>
      <point x="582" y="1129" type="line"/>
      <point x="582" y="432" type="line"/>
      <point x="582" y="347"/>
      <point x="551" y="300"/>
      <point x="470" y="300" type="curve" smooth="yes"/>
      <point x="300" y="300"/>
      <point x="92" y="503"/>
      <point x="92" y="613" type="curve" smooth="yes"/>
      <point x="92" y="666"/>
      <point x="123" y="706"/>
      <point x="200" y="706" type="curve" smooth="yes"/>
      <point x="337" y="706" type="line"/>
      <point x="296" y="667" type="line"/>
      <point x="296" y="1129" type="line"/>
    </contour>
    <contour>
      <point x="933" y="1133" type="line"/>
      <point x="1220" y="1133" type="line"/>
      <point x="1220" y="0" type="line"/>
      <point x="933" y="0" type="line"/>
    </contour>
    <contour>
      <point x="1454" y="1096" type="line"/>
      <point x="-30" y="1096" type="line"/>
      <point x="-30" y="1289" type="line"/>
      <point x="1454" y="1289" type="line"/>
    </contour>
    <contour>
      <point x="933" y="1289" type="move" name="top"/>
    </contour>
  </outline>
</glyph>
<glyph name="cadeva" format="1">
  <advance width="1456"/>
  <unicode hex="091A"/>
  <outline>
    <contour>
      <point x="69" y="675" type="line"/>
      <point x="69" y="902" type="line"/>
      <point x="821" y="902" type="line"/>
      <point x="821" y="675" type="line"/>
    </contour>
    <contour>
      <point x="1006" y="576" type="curve"/>
      <point x="1006" y="235" type="line"/>
      <point x="944" y="196"/>
      <point x="849" y="169"/>
      <point x="737" y="169" type="curve" smooth="yes"/>
      <point x="473" y="169"/>
      <point x="305" y="321"/>
      <point x="305" y="535" type="curve" smooth="yes"/>
      <point x="305" y="721"/>
      <point x="433" y="875"/>
      <point x="732" y="875" type="curve"/>
      <point x="766" y="677" type="line"/>
      <point x="633" y="678"/>
      <point x="564" y="594"/>
      <point x="564" y="513" type="curve" smooth="yes"/>
      <point x="564" y="443"/>
      <point x="620" y="393"/>
      <point x="711" y="393" type="curve" smooth="yes"/>
      <point x="827" y="393"/>
      <point x="944" y="459"/>
    </contour>
    <contour>
      <point x="-30" y="1096" type="line"/>
      <point x="-30" y="1289" type="line"/>
      <point x="1486" y="1289" type="line"/>
      <point x="1486" y="1096" type="line"/>
    </contour>
    <contour>
      <point x="965" y="1133" type="line"/>
      <point x="1251" y="1133" type="line"/>
      <point x="1251" y="0" type="line"/>
      <point x="965" y="0" type="line"/>
    </contour>
    <contour>
      <point x="965" y="1289" type="move" name="top"/>
    </contour>
  </outline>
</glyph>
<glyph name="nadeva" format="1">
  <advance width="1287"/>
  <unicode hex="0928"/>
  <outline>
    <contour>
      <point x="827" y="831" type="line"/>
      <point x="827" y="596" type="line"/>
      <point x="392" y="596" type="line"/>
      <point x="442" y="647" type="line"/>
      <point x="442" y="405" type="line"/>
      <point x="442" y="329"/>
      <point x="404" y="285"/>
      <point x="347" y="285" type="curve" smooth="yes"/>
      <point x="307" y="285"/>
      <point x="266" y="305"/>
      <point x="219" y="352" type="curve" smooth="yes"/>
      <point x="156" y="416"/>
      <point x="83" y="561"/>
      <point x="83" y="686" type="curve" smooth="yes"/>
      <point x="83" y="779"/>
      <point x="131" y="831"/>
      <point x="243" y="831" type="curve" smooth="yes"/>
    </contour>
    <contour>
      <point x="-30" y="1096" type="line"/>
      <point x="-30" y="1289" type="line"/>
      <point x="1317" y="1289" type="line"/>
      <point x="1317" y="1096" type="line"/>
    </contour>
    <contour>
      <point x="796" y="1133" type="line"/>
      <point x="1083" y="1133" type="line"/>
      <point x="1083" y="0" type="line"/>
      <point x="796" y="0" type="line"/>
    </contour>
    <contour>
      <point x="796" y="1289" type="move" name="top"/>
    </contour>
  </outline>
</glyph>
<glyph name="badeva" format="1">
  <advance width="1255"/>
  <unicode hex="092C"/>
  <outline>
    <contour>
      <point x="776" y="436" type="line"/>
      <point x="659" y="347" type="line"/>
      <point x="333" y="720" type="line"/>
      <point x="450" y="809" type="line"/>
    </contour>
    <contour>
      <point x="1285" y="1096" type="line"/>
      <point x="-30" y="1096" type="line"/>
      <point x="-30" y="1289" type="line"/>
      <point x="1285" y="1289" type="line"/>
    </contour>
    <contour>
      <point x="801" y="559" type="curve"/>
      <point x="800" y="261" type="line"/>
      <point x="735" y="216"/>
      <point x="649" y="188"/>
      <point x="548" y="188" type="curve" smooth="yes"/>
      <point x="261" y="188"/>
      <point x="76" y="391"/>
      <point x="76" y="623" type="curve" smooth="yes"/>
      <point x="76" y="817"/>
      <point x="231" y="951"/>
      <point x="470" y="951" type="curve" smooth="yes"/>
      <point x="617" y="951"/>
      <point x="741" y="926"/>
      <point x="849" y="881" type="curve"/>
      <point x="849" y="668" type="line"/>
      <point x="729" y="718"/>
      <point x="639" y="742"/>
      <point x="541" y="742" type="curve" smooth="yes"/>
      <point x="404" y="742"/>
      <point x="332" y="680"/>
      <point x="332" y="577" type="curve" smooth="yes"/>
      <point x="332" y="487"/>
      <point x="405" y="407"/>
      <point x="511" y="407" type="curve" smooth="yes"/>
      <point x="618" y="407"/>
      <point x="714" y="454"/>
    </contour>
    <contour>
      <point x="764" y="1133" type="line"/>
      <point x="1051" y="1133" type="line"/>
      <point x="1051" y="0" type="line"/>
      <point x="764" y="0" type="line"/>
    </contour>
    <contour>
      <point x="764" y="1289" type="move" name="top"/>
    </contour>
  </outline>
</glyph>
<glyph name="ladeva" format="1">
  <advance width="1589"/>
  <unicode hex="0932"/>
  <outline>
    <contour>
      <point x="991" y="646" type="curve"/>
      <point x="821" y="500" type="line"/>
      <point x="725" y="611"/>
      <point x="635" y="661"/>
      <point x="539" y="661" type="curve" smooth="yes"/>
      <point x="414" y="661"/>
      <point x="343" y="571"/>
      <point x="343" y="467" type="curve" smooth="yes"/>
      <point x="343" y="358"/>
      <point x="407" y="260"/>
      <point x="573" y="104" type="curve"/>
      <point x="370" y="-8" type="line"/>
      <point x="189" y="156"/>
      <point x="81" y="336"/>
      <point x="81" y="523" type="curve" smooth="yes"/>
      <point x="81" y="742"/>
      <point x="236" y="903"/>
      <point x="461" y="903" type="curve" smooth="yes"/>
      <point x="662" y="903"/>
      <point x="811" y="826"/>
    </contour>
    <contour>
      <point x="1098" y="1133" type="line"/>
      <point x="1385" y="1133" type="line"/>
      <point x="1385" y="0" type="line"/>
      <point x="1098" y="0" type="line"/>
    </contour>
    <contour>
      <point x="-30" y="1096" type="line"/>
      <point x="-30" y="1289" type="line"/>
      <point x="1619" y="1289" type="line"/>
      <point x="1619" y="1096" type="line"/>
    </contour>
    <contour>
      <point x="1195" y="979" type="line"/>
      <point x="1195" y="645" type="line"/>
      <point x="759" y="239" type="line"/>
      <point x="579" y="406" type="line"/>
    </contour>
    <contour>
      <point x="1098" y="1289" type="move" name="top"/>
    </contour>
  </outline>
</glyph>
<glyph name="vadeva" format="1">
  <advance width="1255"/>
  <unicode hex="0935"/>
  <outline>
    <contour>
      <point x="1285" y="1096" type="line"/>
      <point x="-30" y="1096" type="line"/>
      <point x="-30" y="1289" type="line"/>
      <point x="1285" y="1289" type="line"/>
    </contour>
    <contour>
      <point x="801" y="563" type="curve"/>
      <point x="800" y="261" type="line"/>
      <point x="735" y="216"/>
      <point x="649" y="188"/>
      <point x="548" y="188" type="curve" smooth="yes"/>
      <point x="261" y="188"/>
      <point x="76" y="391"/>
      <point x="76" y="623" type="curve" smooth="yes"/>
      <point x="76" y="817"/>
      <point x="231" y="951"/>
      <point x="470" y="951" type="curve" smooth="yes"/>
      <point x="617" y="951"/>
      <point x="741" y="926"/>
      <point x="849" y="881" type="curve"/>
      <point x="849" y="667" type="line"/>
      <point x="729" y="717"/>
      <point x="641" y="738"/>
      <point x="543" y="738" type="curve" smooth="yes"/>
      <point x="406" y="738"/>
      <point x="341" y="666"/>
      <point x="341" y="575" type="curve" smooth="yes"/>
      <point x="341" y="485"/>
      <point x="411" y="410"/>
      <point x="511" y="410" type="curve" smooth="yes"/>
      <point x="618" y="410"/>
      <point x="708" y="458"/>
    </contour>
    <contour>
      <point x="764" y="1133" type="line"/>
      <point x="1051" y="1133" type="line"/>
      <point x="1051" y="0" type="line"/>
      <point x="764" y="0" type="line"/>
    </contour>
    <contour>
      <point x="764" y="1289" type="move" name="top"/>
    </contour>
  </outline>
</glyph>
<glyph name="hadeva" format="1">
  <advance width="1217"/>
  <unicode hex="0939"/>
  <outline>
    <contour>
      <point x="727" y="1114" type="line"/>
      <point x="1013" y="1114" type="line"/>
      <point x="1013" y="745" type="line"/>
      <point x="490" y="745" type="line"/>
      <point x="384" y="745"/>
      <point x="343" y="701"/>
      <point x="343" y="643" type="curve" smooth="yes"/>
      <point x="343" y="585"/>
      <point x="395" y="544"/>
      <point x="491" y="519" type="curve"/>
      <point x="306" y="370" type="line"/>
      <point x="145" y="461"/>
      <point x="67" y="568"/>
      <point x="67" y="697" type="curve" smooth="yes"/>
      <point x="67" y="834"/>
      <point x="170" y="939"/>
      <point x="387" y="939" type="curve" smooth="yes"/>
      <point x="766" y="939" type="line"/>
      <point x="727" y="890" type="line"/>
    </contour>
    <contour>
      <point x="649" y="585" type="curve" smooth="yes"/>
      <point x="968" y="585"/>
      <point x="1117" y="426"/>
      <point x="1117" y="253" type="curve" smooth="yes"/>
      <point x="1117" y="173"/>
      <point x="1097" y="113"/>
      <point x="1062" y="45" type="curve"/>
      <point x="829" y="89" type="line"/>
      <point x="855" y="137"/>
      <point x="868" y="178"/>
      <point x="868" y="231" type="curve" smooth="yes"/>
      <point x="868" y="301"/>
      <point x="807" y="369"/>
      <point x="670" y="369" type="curve" smooth="yes"/>
      <point x="530" y="370"/>
      <point x="442" y="268"/>
      <point x="442" y="168" type="curve" smooth="yes"/>
      <point x="442" y="26"/>
      <point x="558" y="-77"/>
      <point x="1008" y="-132" type="curve"/>
      <point x="934" y="-327" type="line"/>
      <point x="408" y="-266"/>
      <point x="173" y="-79"/>
      <point x="173" y="201" type="curve" smooth="yes"/>
      <point x="173" y="405"/>
      <point x="334" y="585"/>
    </contour>
    <contour>
      <point x="1247" y="1096" type="line"/>
      <point x="-30" y="1096" type="line"/>
      <point x="-30" y="1289" type="line"/>
      <point x="1247" y="1289" type="line"/>
    </contour>
    <contour>
      <point x="726" y="1289" type="move" name="top"/>
    </contour>
  </outline>
</glyph>
<glyph name="avagrahadeva" format="1">
  <advance width="1163"/>
  <unicode hex="093D"/>
  <outline>
    <contour>
      <point x="1012" y="376" type="curve" smooth="yes"/>
      <point x="1012" y="160"/>
      <point x="843" y="32"/>
      <point x="616" y="32" type="curve" smooth="yes"/>
      <point x="440" y="32"/>
      <point x="268" y="77"/>
      <point x="89" y="193" type="curve"/>
      <point x="149" y="411" type="line"/>
      <point x="308" y="303"/>
      <point x="437" y="256"/>
      <point x="546" y="256" type="curve" smooth="yes"/>
      <point x="668" y="256"/>
      <point x="745" y="310"/>
      <point x="745" y="400" type="curve" smooth="yes"/>
      <point x="745" y="485"/>
      <point x="689" y="537"/>
      <point x="494" y="671" type="curve" smooth="yes"/>
      <point x="302" y="804"/>
      <point x="231" y="899"/>
      <point x="231" y="1035" type="curve" smooth="yes"/>
      <point x="231" y="1172"/>
      <point x="335" y="1289"/>
      <point x="577" y="1289" type="curve" smooth="yes"/>
      <point x="984" y="1289" type="line"/>
      <point x="984" y="1096" type="line"/>
      <point x="655" y="1096" type="line"/>
      <point x="553" y="1096"/>
      <point x="514" y="1056"/>
      <point x="514" y="994" type="curve" smooth="yes"/>
      <point x="513" y="937"/>
      <point x="556" y="893"/>
      <point x="723" y="781" type="curve" smooth="yes"/>
      <point x="930" y="640"/>
      <point x="1012" y="533"/>
    </contour>
  </outline>
</glyph>
<glyph name="aavowelsigndeva" format="1">
  <advance width="650"/>
  <unicode hex="093E"/>
  <outline>
    <contour>
      <point x="160" y="1133" type="line"/>
      <point x="446" y="1133" type="line"/>
      <point x="446" y="0" type="line"/>
      <point x="160" y="0" type="line"/>
    </contour>
    <contour>
      <point x="680" y="1096" type="line"/>
      <point x="-30" y="1096" type="line"/>
      <point x="-30" y="1289" type="line"/>
      <point x="680" y="1289" type="line"/>
    </contour>
  </outline>
</glyph>
<glyph name="rvocalicvowelsigndeva" format="1">
  <advance width="0"/>
  <unicode hex="0943"/>
  <outline>
    <contour>
      <point x="-112" y="-515" type="line"/>
      <point x="-184" y="-541"/>
      <point x="-263" y="-557"/>
      <point x="-359" y="-557" type="curve" smooth="yes"/>
      <point x="-564" y="-557"/>
      <point x="-745" y="-444"/>
      <point x="-745" y="-249" type="curve" smooth="yes"/>
      <point x="-745" y="-78"/>
      <point x="-599" y="41"/>
      <point x="-372" y="41" type="curve" smooth="yes"/>
      <point x="-313" y="41"/>
      <point x="-267" y="38"/>
      <point x="-204" y="33" type="curve"/>
      <point x="-204" y="-132" type="line"/>
      <point x="-239" y="-132"/>
      <point x="-288" y="-132"/>
      <point x="-324" y="-132" type="curve" smooth="yes"/>
      <point x="-452" y="-132"/>
      <point x="-512" y="-194"/>
      <point x="-512" y="-268" type="curve" smooth="yes"/>
      <point x="-512" y="-333"/>
      <point x="-456" y="-378"/>
      <point x="-364" y="-378" type="curve" smooth="yes"/>
      <point x="-291" y="-378"/>
      <point x="-227" y="-362"/>
      <point x="-143" y="-329" type="curve"/>
    </contour>
    <contour>
      <point x="-492" y="0" type="move" name="_btm"/>
    </contour>
  </outline>
</glyph>
<glyph name="aivowelsigndeva" format="1">
  <advance width="0"/>
  <unicode hex="0948"/>
  <outline>
    <contour>
      <point x="-818" y="1244" type="line"/>
      <point x="-1273" y="1602" type="line"/>
      <point x="-1077" y="1771" type="line"/>
      <point x="-455" y="1244" type="line"/>
    </contour>
    <contour>
      <point x="-468" y="1244" type="line"/>
      <point x="-703" y="1808" type="line"/>
      <point x="-449" y="1881" type="line"/>
      <point x="-208" y="1244" type="line"/>
    </contour>
    <contour>
      <point x="-493" y="1289" type="move" name="_top"/>
    </contour>
  </outline>
</glyph>
<glyph name="uuevowelsigndevaKSH" format="1">
  <advance width="0"/>
  <unicode hex="0957"/>
  <outline>
    <component base="uevowelsigndevaKSH" yScale="0.905683216759" yOffset="-5"/>
    <component base="uevowelsigndevaKSH" xScale="1.05477548574" yScale="0.86862217621" xOffset="26" yOffset="-325"/>
    <contour>
      <point x="-492" y="0" type="move" name="_btm"/>
    </contour>
  </outline>
</glyph>
<glyph name="zerodeva" format="1">
  <advance width="1205"/>
  <unicode hex="0966"/>
  <outline>
    <contour>
      <point x="595" y="1132" type="curve" smooth="yes"/>
      <point x="919" y="1132"/>
      <point x="1116" y="911"/>
      <point x="1116" y="632" type="curve" smooth="yes"/>
      <point x="1116" y="383"/>
      <point x="941" y="163"/>
      <point x="617" y="163" type="curve" smooth="yes"/>
      <point x="300" y="163"/>
      <point x="90" y="387"/>
      <point x="90" y="667" type="curve" smooth="yes"/>
      <point x="90" y="909"/>
      <point x="280" y="1132"/>
    </contour>
    <contour>
      <point x="596" y="404" type="curve" smooth="yes"/>
      <point x="740" y="404"/>
      <point x="845" y="514"/>
      <point x="845" y="658" type="curve" smooth="yes"/>
      <point x="845" y="790"/>
      <point x="758" y="897"/>
      <point x="613" y="897" type="curve" smooth="yes"/>
      <point x="464" y="897"/>
      <point x="368" y="775"/>
      <point x="368" y="638" type="curve" smooth="yes"/>
      <point x="368" y="497"/>
      <point x="467" y="404"/>
    </contour>
  </outline>
</glyph>
<glyph name="quoteright.deva" format="1">
  <advance width="898"/>
  <unicode hex="2019"/>
  <outline>
    <contour>
      <point x="612" y="1316" type="line"/>
      <point x="625" y="1296" type="line"/>
      <point x="595" y="1178"/>
      <point x="542" y="1034"/>
      <point x="467" y="865" type="curve"/>
      <point x="269" y="865" type="line"/>
      <point x="311" y="1042"/>
      <point x="341" y="1193"/>
      <point x="359" y="1316" type="curve"/>
    </contour>
  </outline>
</glyph>
<glyph name="quotedblright.deva" format="1">
  <advance width="1318"/>
  <unicode hex="201D"/>
  <outline>
    <contour>
      <point x="585" y="1296" type="line"/>
      <point x="555" y="1178"/>
      <point x="502" y="1034"/>
      <point x="427" y="865" type="curve"/>
      <point x="229" y="865" type="line"/>
      <point x="271" y="1042"/>
      <point x="301" y="1193"/>
      <point x="319" y="1316" type="curve"/>
      <point x="572" y="1316" type="line"/>
    </contour>
    <contour>
      <point x="1005" y="1296" type="line"/>
      <point x="975" y="1178"/>
      <point x="922" y="1034"/>
      <point x="847" y="865" type="curve"/>
      <point x="650" y="865" type="line"/>
      <point x="691" y="1042"/>
      <point x="721" y="1193"/>
      <point x="740" y="1316" type="curve"/>
      <point x="992" y="1316" type="line"/>
    </contour>
  </outline>
</glyph>
<glyph name="bharaprehalfdeva" format="1">
  <advance width="923"/>
  <outline>
    <contour>
      <point x="1305" y="371" type="line"/>
      <point x="716" y="-116" type="line"/>
      <point x="551" y="55" type="line"/>
      <point x="1155" y="550" type="line"/>
    </contour>
    <contour>
      <point x="444" y="681" type="line"/>
      <point x="409" y="652" type="line"/>
      <point x="409" y="1000" type="line"/>
      <point x="409" y="1099"/>
      <point x="356" y="1158"/>
      <point x="285" y="1158" type="curve" smooth="yes"/>
      <point x="227" y="1158"/>
      <point x="191" y="1118"/>
      <point x="191" y="1067" type="curve" smooth="yes"/>
      <point x="191" y="999"/>
      <point x="251" y="940"/>
      <point x="429" y="938" type="curve"/>
      <point x="425" y="762" type="line"/>
      <point x="99" y="767"/>
      <point x="-55" y="912"/>
      <point x="-55" y="1101" type="curve" smooth="yes"/>
      <point x="-55" y="1236"/>
      <point x="39" y="1362"/>
      <point x="257" y="1362" type="curve" smooth="yes"/>
      <point x="501" y="1362"/>
      <point x="676" y="1200"/>
      <point x="676" y="964" type="curve" smooth="yes"/>
      <point x="676" y="643" type="line"/>
      <point x="643" y="682" type="line"/>
      <point x="1186" y="682" type="line"/>
      <point x="1203" y="446" type="line"/>
      <point x="630" y="446" type="line"/>
      <point x="676" y="489" type="line"/>
      <point x="676" y="358" type="line"/>
      <point x="676" y="284"/>
      <point x="648" y="240"/>
      <point x="576" y="240" type="curve" smooth="yes"/>
      <point x="508" y="240"/>
      <point x="412" y="284"/>
      <point x="343" y="354" type="curve" smooth="yes"/>
      <point x="277" y="420"/>
      <point x="227" y="508"/>
      <point x="227" y="581" type="curve" smooth="yes"/>
      <point x="227" y="640"/>
      <point x="263" y="681"/>
      <point x="338" y="681" type="curve" smooth="yes"/>
    </contour>
  </outline>
</glyph>
<glyph name="chaprehalfdeva" format="1">
  <advance width="1579"/>
  <outline>
    <contour>
      <point x="577" y="757" type="curve"/>
      <point x="387" y="608" type="line"/>
      <point x="165" y="678"/>
      <point x="79" y="802"/>
      <point x="79" y="961" type="curve" smooth="yes"/>
      <point x="79" y="1095"/>
      <point x="209" y="1251"/>
      <point x="489" y="1265" type="curve"/>
      <point x="586" y="1116" type="line"/>
      <point x="429" y="1100"/>
      <point x="364" y="1006"/>
      <point x="364" y="931" type="curve" smooth="yes"/>
      <point x="364" y="846"/>
      <point x="424" y="782"/>
    </contour>
    <contour>
      <point x="1609" y="1096" type="line"/>
      <point x="-30" y="1096" type="line"/>
      <point x="-30" y="1289" type="line"/>
      <point x="1609" y="1289" type="line"/>
    </contour>
    <contour>
      <point x="669" y="796" type="curve"/>
      <point x="742" y="572" type="line"/>
      <point x="741" y="572"/>
      <point x="738" y="572"/>
      <point x="737" y="572" type="curve" smooth="yes"/>
      <point x="546" y="560"/>
      <point x="485" y="477"/>
      <point x="485" y="391" type="curve" smooth="yes"/>
      <point x="485" y="297"/>
      <point x="567" y="224"/>
      <point x="719" y="224" type="curve" smooth="yes"/>
      <point x="1006" y="224"/>
      <point x="1267" y="451"/>
      <point x="1267" y="660" type="curve" smooth="yes"/>
      <point x="1267" y="741"/>
      <point x="1216" y="790"/>
      <point x="1152" y="790" type="curve" smooth="yes"/>
      <point x="1090" y="790"/>
      <point x="1046" y="739"/>
      <point x="1046" y="676" type="curve" smooth="yes"/>
      <point x="1046" y="578"/>
      <point x="1110" y="491"/>
      <point x="1296" y="372" type="curve"/>
      <point x="1153" y="231" type="line"/>
      <point x="912" y="386"/>
      <point x="808" y="552"/>
      <point x="808" y="711" type="curve" smooth="yes"/>
      <point x="808" y="863"/>
      <point x="931" y="994"/>
      <point x="1132" y="994" type="curve" smooth="yes"/>
      <point x="1359" y="994"/>
      <point x="1501" y="861"/>
      <point x="1501" y="637" type="curve" smooth="yes"/>
      <point x="1501" y="361"/>
      <point x="1194" y="-3"/>
      <point x="721" y="-3" type="curve" smooth="yes"/>
      <point x="371" y="-3"/>
      <point x="199" y="202"/>
      <point x="199" y="426" type="curve" smooth="yes"/>
      <point x="199" y="614"/>
      <point x="354" y="785"/>
      <point x="664" y="796" type="curve" smooth="yes"/>
      <point x="666" y="796"/>
      <point x="667" y="796"/>
    </contour>
  </outline>
</glyph>
<glyph name="ddanuktaradeva" format="1">
  <advance width="1228"/>
  <outline>
    <component base="nuktadeva" xOffset="877" yOffset="236"/>
    <component base="ddaradeva"/>
    <contour>
      <point x="546" y="-358" type="move" name="btm"/>
    </contour>
    <contour>
      <point x="712" y="1289" type="move" name="top"/>
    </contour>
  </outline>
</glyph>
<glyph name="hanadeva" format="1">
  <advance width="1487"/>
  <outline>
    <contour>
      <point x="394" y="94" type="curve" smooth="yes"/>
      <point x="394" y="-52"/>
      <point x="479" y="-174"/>
      <point x="720" y="-363" type="curve"/>
      <point x="556" y="-494" type="line"/>
      <point x="271" y="-280"/>
      <point x="154" y="-88"/>
      <point x="154" y="150" type="curve" smooth="yes"/>
      <point x="154" y="356"/>
      <point x="319" y="602"/>
      <point x="742" y="602" type="curve" smooth="yes"/>
      <point x="1175" y="602"/>
      <point x="1386" y="407"/>
      <point x="1386" y="117" type="curve" smooth="yes"/>
      <point x="1386" y="-310" type="line"/>
      <point x="1134" y="-310" type="line"/>
      <point x="1134" y="126" type="line"/>
      <point x="1134" y="283"/>
      <point x="1039" y="386"/>
      <point x="752" y="386" type="curve" smooth="yes"/>
      <point x="512" y="386"/>
      <point x="394" y="253"/>
    </contour>
    <contour>
      <point x="1517" y="1096" type="line"/>
      <point x="-30" y="1096" type="line"/>
      <point x="-30" y="1289" type="line"/>
      <point x="1517" y="1289" type="line"/>
    </contour>
    <contour>
      <point x="998" y="1114" type="line"/>
      <point x="1283" y="1114" type="line"/>
      <point x="1283" y="745" type="line"/>
      <point x="494" y="745" type="line"/>
      <point x="385" y="745"/>
      <point x="346" y="701"/>
      <point x="346" y="643" type="curve" smooth="yes"/>
      <point x="346" y="585"/>
      <point x="395" y="544"/>
      <point x="491" y="519" type="curve"/>
      <point x="305" y="373" type="line"/>
      <point x="144" y="464"/>
      <point x="69" y="571"/>
      <point x="69" y="697" type="curve" smooth="yes"/>
      <point x="69" y="830"/>
      <point x="170" y="939"/>
      <point x="387" y="939" type="curve" smooth="yes"/>
      <point x="1037" y="939" type="line"/>
      <point x="998" y="890" type="line"/>
    </contour>
    <contour>
      <point x="1290" y="224" type="line"/>
      <point x="1290" y="23" type="line"/>
      <point x="875" y="23" type="line"/>
      <point x="925" y="74" type="line"/>
      <point x="925" y="-83" type="line"/>
      <point x="925" y="-151"/>
      <point x="896" y="-190"/>
      <point x="839" y="-190" type="curve" smooth="yes"/>
      <point x="807" y="-190"/>
      <point x="768" y="-166"/>
      <point x="726" y="-125" type="curve" smooth="yes"/>
      <point x="666" y="-64"/>
      <point x="610" y="48"/>
      <point x="611" y="121" type="curve" smooth="yes"/>
      <point x="611" y="185"/>
      <point x="651" y="224"/>
      <point x="741" y="224" type="curve" smooth="yes"/>
    </contour>
    <contour>
      <point x="1134" y="-310" type="move" name="btm"/>
    </contour>
    <contour>
      <point x="998" y="1289" type="move" name="top"/>
    </contour>
  </outline>
</glyph>
<glyph name="haraudeva" format="1">
  <advance width="1289"/>
  <outline>
    <contour>
      <point x="939" y="411" type="line"/>
      <point x="758" y="44" type="line"/>
      <point x="555" y="114" type="line"/>
      <point x="730" y="483" type="line"/>
    </contour>
    <contour>
      <point x="1320" y="1096" type="line"/>
      <point x="-30" y="1096" type="line"/>
      <point x="-30" y="1289" type="line"/>
      <point x="1320" y="1289" type="line"/>
    </contour>
    <contour>
      <point x="804" y="1114" type="line"/>
      <point x="1090" y="1114" type="line"/>
      <point x="1090" y="745" type="line"/>
      <point x="494" y="745" type="line"/>
      <point x="388" y="745"/>
      <point x="346" y="702"/>
      <point x="346" y="644" type="curve" smooth="yes"/>
      <point x="346" y="586"/>
      <point x="396" y="545"/>
      <point x="493" y="520" type="curve"/>
      <point x="307" y="371" type="line"/>
      <point x="146" y="462"/>
      <point x="70" y="569"/>
      <point x="70" y="699" type="curve" smooth="yes"/>
      <point x="70" y="832"/>
      <point x="172" y="939"/>
      <point x="389" y="939" type="curve" smooth="yes"/>
      <point x="843" y="939" type="line"/>
      <point x="804" y="890" type="line"/>
    </contour>
    <contour>
      <point x="690" y="591" type="curve" smooth="yes"/>
      <point x="1011" y="591"/>
      <point x="1191" y="439"/>
      <point x="1191" y="253" type="curve" smooth="yes"/>
      <point x="1191" y="173"/>
      <point x="1175" y="117"/>
      <point x="1142" y="45" type="curve"/>
      <point x="918" y="89" type="line"/>
      <point x="943" y="135"/>
      <point x="956" y="186"/>
      <point x="956" y="239" type="curve" smooth="yes"/>
      <point x="956" y="327"/>
      <point x="893" y="398"/>
      <point x="719" y="399" type="curve" smooth="yes"/>
      <point x="529" y="399"/>
      <point x="437" y="284"/>
      <point x="437" y="168" type="curve" smooth="yes"/>
      <point x="437" y="19"/>
      <point x="560" y="-59"/>
      <point x="868" y="-111" type="curve"/>
      <point x="792" y="-304" type="line"/>
      <point x="408" y="-238"/>
      <point x="174" y="-78"/>
      <point x="174" y="199" type="curve" smooth="yes"/>
      <point x="174" y="416"/>
      <point x="354" y="591"/>
    </contour>
    <component base="uvowelsigndeva" xOffset="1161" yOffset="-141"/>
  </outline>
</glyph>
<glyph name="ivowelsign03deva" format="1">
  <advance width="650"/>
  <outline>
    <contour>
      <point x="160" y="1254" type="line"/>
      <point x="160" y="1347" type="line"/>
      <point x="160" y="1589"/>
      <point x="330" y="1800"/>
      <point x="807" y="1800" type="curve" smooth="yes"/>
      <point x="1082" y="1800"/>
      <point x="1364" y="1755"/>
      <point x="1608" y="1672" type="curve"/>
      <point x="1555" y="1462" type="line"/>
      <point x="1303" y="1530"/>
      <point x="1060" y="1563"/>
      <point x="850" y="1563" type="curve" smooth="yes"/>
      <point x="548" y="1563"/>
      <point x="446" y="1449"/>
      <point x="446" y="1323" type="curve" smooth="yes"/>
      <point x="446" y="1254" type="line"/>
    </contour>
    <component base="aavowelsigndeva"/>
  </outline>
</glyph>
<glyph name="ivowelsign05deva" format="1">
  <advance width="650"/>
  <outline>
    <contour>
      <point x="160" y="1254" type="line"/>
      <point x="160" y="1344" type="line"/>
      <point x="160" y="1586"/>
      <point x="351" y="1801"/>
      <point x="890" y="1801" type="curve" smooth="yes"/>
      <point x="1244" y="1801"/>
      <point x="1643" y="1741"/>
      <point x="1983" y="1660" type="curve"/>
      <point x="1947" y="1454" type="line"/>
      <point x="1582" y="1522"/>
      <point x="1236" y="1565"/>
      <point x="941" y="1565" type="curve" smooth="yes"/>
      <point x="550" y="1565"/>
      <point x="446" y="1448"/>
      <point x="446" y="1320" type="curve" smooth="yes"/>
      <point x="446" y="1254" type="line"/>
    </contour>
    <component base="aavowelsigndeva"/>
  </outline>
</glyph>
<glyph name="jhaprehalfdeva" format="1">
  <advance width="1143"/>
  <outline>
    <contour>
      <point x="536" y="146" type="curve"/>
      <point x="550" y="127" type="line"/>
      <point x="833" y="-175" type="line"/>
      <point x="656" y="-290" type="line"/>
      <point x="321" y="76" type="line"/>
      <point x="439" y="-4" type="line"/>
      <point x="191" y="-4"/>
      <point x="97" y="95"/>
      <point x="97" y="174" type="curve" smooth="yes"/>
      <point x="97" y="246"/>
      <point x="159" y="311"/>
      <point x="250" y="311" type="curve" smooth="yes"/>
      <point x="337" y="311"/>
      <point x="422" y="268"/>
    </contour>
    <contour>
      <point x="1487" y="411" type="line"/>
      <point x="1363" y="338"/>
      <point x="1234" y="306"/>
      <point x="1095" y="306" type="curve" smooth="yes"/>
      <point x="988" y="306"/>
      <point x="888" y="320"/>
      <point x="824" y="336" type="curve"/>
      <point x="818" y="548" type="line"/>
      <point x="882" y="533"/>
      <point x="945" y="525"/>
      <point x="1009" y="525" type="curve" smooth="yes"/>
      <point x="1126" y="525"/>
      <point x="1279" y="570"/>
      <point x="1390" y="649" type="curve"/>
    </contour>
    <contour>
      <point x="618" y="1121" type="line"/>
      <point x="904" y="1121" type="line"/>
      <point x="904" y="757" type="line"/>
      <point x="461" y="757" type="line"/>
      <point x="369" y="757"/>
      <point x="334" y="717"/>
      <point x="334" y="667" type="curve" smooth="yes"/>
      <point x="334" y="623"/>
      <point x="365" y="589"/>
      <point x="439" y="557" type="curve"/>
      <point x="337" y="568" type="line"/>
      <point x="430" y="608"/>
      <point x="534" y="634"/>
      <point x="646" y="634" type="curve" smooth="yes"/>
      <point x="861" y="634"/>
      <point x="1005" y="514"/>
      <point x="1005" y="344" type="curve" smooth="yes"/>
      <point x="1005" y="152"/>
      <point x="837" y="5"/>
      <point x="486" y="5" type="curve"/>
      <point x="441" y="206" type="line"/>
      <point x="669" y="206"/>
      <point x="751" y="274"/>
      <point x="751" y="340" type="curve" smooth="yes"/>
      <point x="751" y="393"/>
      <point x="706" y="424"/>
      <point x="625" y="424" type="curve" smooth="yes"/>
      <point x="560" y="424"/>
      <point x="471" y="400"/>
      <point x="396" y="365" type="curve"/>
      <point x="388" y="365" type="line"/>
      <point x="165" y="468"/>
      <point x="83" y="583"/>
      <point x="83" y="710" type="curve" smooth="yes"/>
      <point x="83" y="834"/>
      <point x="177" y="947"/>
      <point x="402" y="947" type="curve" smooth="yes"/>
      <point x="678" y="947" type="line"/>
      <point x="618" y="887" type="line"/>
    </contour>
    <contour>
      <point x="1173" y="1096" type="line"/>
      <point x="-30" y="1096" type="line"/>
      <point x="-30" y="1289" type="line"/>
      <point x="1173" y="1289" type="line"/>
    </contour>
  </outline>
</glyph>
<glyph name="jharaprehalfdeva" format="1">
  <advance width="1157"/>
  <outline>
    <contour>
      <point x="536" y="146" type="curve"/>
      <point x="569" y="107" type="line"/>
      <point x="833" y="-175" type="line"/>
      <point x="656" y="-290" type="line"/>
      <point x="321" y="76" type="line"/>
      <point x="439" y="-4" type="line"/>
      <point x="191" y="-4"/>
      <point x="97" y="95"/>
      <point x="97" y="174" type="curve" smooth="yes"/>
      <point x="97" y="246"/>
      <point x="159" y="311"/>
      <point x="250" y="311" type="curve" smooth="yes"/>
      <point x="337" y="311"/>
      <point x="422" y="268"/>
    </contour>
    <contour>
      <point x="1538" y="383" type="line"/>
      <point x="1013" y="-177" type="line"/>
      <point x="831" y="-18" type="line"/>
      <point x="1416" y="583" type="line"/>
    </contour>
    <contour>
      <point x="1489" y="458" type="line"/>
      <point x="1379" y="388"/>
      <point x="1238" y="332"/>
      <point x="1063" y="332" type="curve" smooth="yes"/>
      <point x="978" y="332"/>
      <point x="888" y="346"/>
      <point x="824" y="361" type="curve"/>
      <point x="818" y="574" type="line"/>
      <point x="882" y="558"/>
      <point x="939" y="550"/>
      <point x="1003" y="550" type="curve" smooth="yes"/>
      <point x="1132" y="550"/>
      <point x="1272" y="598"/>
      <point x="1381" y="698" type="curve"/>
    </contour>
    <contour>
      <point x="618" y="1121" type="line"/>
      <point x="904" y="1121" type="line"/>
      <point x="904" y="757" type="line"/>
      <point x="461" y="757" type="line"/>
      <point x="369" y="757"/>
      <point x="334" y="717"/>
      <point x="334" y="667" type="curve" smooth="yes"/>
      <point x="334" y="623"/>
      <point x="365" y="589"/>
      <point x="439" y="557" type="curve"/>
      <point x="337" y="568" type="line"/>
      <point x="430" y="608"/>
      <point x="534" y="634"/>
      <point x="646" y="634" type="curve" smooth="yes"/>
      <point x="855" y="634"/>
      <point x="979" y="521"/>
      <point x="979" y="350" type="curve" smooth="yes"/>
      <point x="979" y="172"/>
      <point x="780" y="5"/>
      <point x="486" y="5" type="curve"/>
      <point x="441" y="206" type="line"/>
      <point x="612" y="206"/>
      <point x="713" y="274"/>
      <point x="713" y="341" type="curve" smooth="yes"/>
      <point x="713" y="393"/>
      <point x="671" y="424"/>
      <point x="599" y="424" type="curve" smooth="yes"/>
      <point x="535" y="424"/>
      <point x="465" y="400"/>
      <point x="396" y="365" type="curve"/>
      <point x="388" y="365" type="line"/>
      <point x="165" y="468"/>
      <point x="83" y="583"/>
      <point x="83" y="710" type="curve" smooth="yes"/>
      <point x="83" y="834"/>
      <point x="177" y="947"/>
      <point x="402" y="947" type="curve" smooth="yes"/>
      <point x="678" y="947" type="line"/>
      <point x="618" y="887" type="line"/>
    </contour>
    <contour>
      <point x="1187" y="1096" type="line"/>
      <point x="-30" y="1096" type="line"/>
      <point x="-30" y="1289" type="line"/>
      <point x="1187" y="1289" type="line"/>
    </contour>
  </outline>
</glyph>
<glyph name="naradeva" format="1">
  <advance width="1287"/>
  <outline>
    <contour>
      <point x="1012" y="316" type="line"/>
      <point x="321" y="-126" type="line"/>
      <point x="185" y="68" type="line"/>
      <point x="877" y="513" type="line"/>
    </contour>
    <contour>
      <point x="827" y="831" type="line"/>
      <point x="827" y="596" type="line"/>
      <point x="392" y="596" type="line"/>
      <point x="442" y="647" type="line"/>
      <point x="442" y="436" type="line"/>
      <point x="442" y="360"/>
      <point x="400" y="319"/>
      <point x="343" y="319" type="curve" smooth="yes"/>
      <point x="302" y="319"/>
      <point x="266" y="338"/>
      <point x="219" y="384" type="curve" smooth="yes"/>
      <point x="164" y="439"/>
      <point x="83" y="587"/>
      <point x="83" y="693" type="curve" smooth="yes"/>
      <point x="83" y="779"/>
      <point x="131" y="831"/>
      <point x="243" y="831" type="curve" smooth="yes"/>
    </contour>
    <contour>
      <point x="-30" y="1096" type="line"/>
      <point x="-30" y="1289" type="line"/>
      <point x="1317" y="1289" type="line"/>
      <point x="1317" y="1096" type="line"/>
    </contour>
    <contour>
      <point x="796" y="1133" type="line"/>
      <point x="1083" y="1133" type="line"/>
      <point x="1083" y="0" type="line"/>
      <point x="796" y="0" type="line"/>
    </contour>
    <contour>
      <point x="796" y="1289" type="move" name="top"/>
    </contour>
  </outline>
</glyph>
<glyph name="shaladeva" format="1">
  <advance width="2414"/>
  <outline>
    <contour>
      <point x="186" y="372" type="line"/>
      <point x="61" y="579" type="line"/>
      <point x="346" y="731" type="line"/>
      <point x="575" y="852"/>
      <point x="638" y="922"/>
      <point x="638" y="1000" type="curve" smooth="yes"/>
      <point x="638" y="1063"/>
      <point x="594" y="1109"/>
      <point x="530" y="1109" type="curve" smooth="yes"/>
      <point x="452" y="1109"/>
      <point x="414" y="1063"/>
      <point x="414" y="1002" type="curve" smooth="yes"/>
      <point x="414" y="877"/>
      <point x="642" y="772"/>
      <point x="1199" y="707" type="curve"/>
      <point x="1139" y="508" type="line"/>
      <point x="423" y="570"/>
      <point x="163" y="790"/>
      <point x="163" y="1037" type="curve" smooth="yes"/>
      <point x="163" y="1184"/>
      <point x="281" y="1320"/>
      <point x="508" y="1320" type="curve" smooth="yes"/>
      <point x="742" y="1320"/>
      <point x="873" y="1173"/>
      <point x="873" y="996" type="curve" smooth="yes"/>
      <point x="873" y="818"/>
      <point x="749" y="673"/>
      <point x="468" y="524" type="curve" smooth="yes"/>
    </contour>
    <contour>
      <point x="1923" y="1133" type="line"/>
      <point x="2210" y="1133" type="line"/>
      <point x="2210" y="0" type="line"/>
      <point x="1923" y="0" type="line"/>
    </contour>
    <contour>
      <point x="1013" y="1096" type="line"/>
      <point x="1013" y="1289" type="line"/>
      <point x="2444" y="1289" type="line"/>
      <point x="2444" y="1096" type="line"/>
    </contour>
    <contour>
      <point x="1835" y="651" type="curve"/>
      <point x="1665" y="505" type="line"/>
      <point x="1569" y="616"/>
      <point x="1484" y="661"/>
      <point x="1383" y="661" type="curve" smooth="yes"/>
      <point x="1255" y="661"/>
      <point x="1185" y="575"/>
      <point x="1185" y="469" type="curve" smooth="yes"/>
      <point x="1185" y="347"/>
      <point x="1255" y="245"/>
      <point x="1388" y="111" type="curve"/>
      <point x="1191" y="-3" type="line"/>
      <point x="1044" y="140"/>
      <point x="925" y="336"/>
      <point x="925" y="523" type="curve" smooth="yes"/>
      <point x="925" y="742"/>
      <point x="1080" y="903"/>
      <point x="1322" y="903" type="curve" smooth="yes"/>
      <point x="1515" y="903"/>
      <point x="1662" y="823"/>
    </contour>
    <contour>
      <point x="2020" y="979" type="line"/>
      <point x="2020" y="645" type="line"/>
      <point x="1584" y="239" type="line"/>
      <point x="1404" y="406" type="line"/>
    </contour>
    <contour>
      <point x="1923" y="1289" type="move" name="top"/>
    </contour>
  </outline>
</glyph>
<glyph name="shaprehalfdeva" format="1">
  <advance width="990"/>
  <outline>
    <contour>
      <point x="549" y="434" type="line"/>
      <point x="883" y="108" type="line"/>
      <point x="715" y="-44" type="line"/>
      <point x="337" y="324" type="line"/>
    </contour>
    <contour>
      <point x="254" y="253" type="curve" smooth="yes"/>
      <point x="135" y="253"/>
      <point x="89" y="325"/>
      <point x="89" y="418" type="curve" smooth="yes"/>
      <point x="89" y="525"/>
      <point x="161" y="631"/>
      <point x="264" y="631" type="curve" smooth="yes"/>
      <point x="339" y="631"/>
      <point x="398" y="588"/>
      <point x="475" y="509" type="curve"/>
      <point x="367" y="520" type="line"/>
      <point x="548" y="575"/>
      <point x="681" y="729"/>
      <point x="681" y="896" type="curve" smooth="yes"/>
      <point x="681" y="1007"/>
      <point x="599" y="1106"/>
      <point x="489" y="1106" type="curve" smooth="yes"/>
      <point x="421" y="1106"/>
      <point x="381" y="1062"/>
      <point x="381" y="1008" type="curve" smooth="yes"/>
      <point x="381" y="922"/>
      <point x="476" y="844"/>
      <point x="748" y="829" type="curve"/>
      <point x="681" y="651" type="line"/>
      <point x="278" y="692"/>
      <point x="136" y="855"/>
      <point x="136" y="1038" type="curve" smooth="yes"/>
      <point x="136" y="1182"/>
      <point x="244" y="1318"/>
      <point x="462" y="1318" type="curve" smooth="yes"/>
      <point x="730" y="1318"/>
      <point x="920" y="1135"/>
      <point x="920" y="861" type="curve" smooth="yes"/>
      <point x="920" y="514"/>
      <point x="512" y="253"/>
    </contour>
  </outline>
</glyph>
